<?xml version="1.0" encoding="UTF-8" standalone="no"?>
<!-- Created with Inkscape (http://www.inkscape.org/) -->

<svg
   width="97.785507mm"
   height="21.387316mm"
   viewBox="0 0 97.78551 21.387316"
   version="1.1"
   id="svg1"
   xml:space="preserve"
   inkscape:version="1.3 (0e150ed6c4, 2023-07-21)"
   sodipodi:docname="BlastTV.svg"
   inkscape:export-filename="BlastTV.png"
   inkscape:export-xdpi="96"
   inkscape:export-ydpi="96"
   xmlns:inkscape="http://www.inkscape.org/namespaces/inkscape"
   xmlns:sodipodi="http://sodipodi.sourceforge.net/DTD/sodipodi-0.dtd"
   xmlns="http://www.w3.org/2000/svg"
   xmlns:svg="http://www.w3.org/2000/svg"><sodipodi:namedview
     id="namedview1"
     pagecolor="#ffffff"
     bordercolor="#000000"
     borderopacity="0.25"
     inkscape:showpageshadow="2"
     inkscape:pageopacity="0.0"
     inkscape:pagecheckerboard="0"
     inkscape:deskcolor="#d1d1d1"
     inkscape:document-units="mm"
     inkscape:zoom="1.0104048"
     inkscape:cx="214.76541"
     inkscape:cy="-52.454224"
     inkscape:window-width="1920"
     inkscape:window-height="991"
     inkscape:window-x="-9"
     inkscape:window-y="-9"
     inkscape:window-maximized="1"
     inkscape:current-layer="layer1" /><defs
     id="defs1" /><g
     inkscape:label="Katman 1"
     inkscape:groupmode="layer"
     id="layer1"
     transform="translate(-82.072647,-187.59867)"><rect
       style="display:inline;fill:#ffa300;fill-opacity:1;stroke-width:0.869193;stroke-linecap:round;stroke-linejoin:round;paint-order:markers stroke fill"
       id="rect1"
       width="29.877228"
       height="20.03219"
       x="149.98093"
       y="188.85503"
       rx="10.016095"
       ry="10.016095" /><ellipse
       style="display:inline;fill:#ffffff;stroke-width:1.1846;stroke-linecap:round;stroke-linejoin:round;paint-order:markers stroke fill"
       id="path1"
       cx="169.71062"
       cy="198.80705"
       rx="9.3870897"
       ry="9.2574663" /><path
       d="m 168.18697,203.38753 v -1.77104 c -0.31937,0.1742 -0.68229,0.27582 -1.08875,0.27582 -0.49357,0 -0.71132,-0.24679 -0.71132,-0.75487 v -3.32433 h 1.8291 v -1.88717 h -1.8291 v -1.98879 h -2.20654 v 1.98879 h -0.92907 v 1.88717 h 0.92907 v 3.68725 c 0,1.80007 0.91455,2.33718 2.26461,2.33718 0.74035,0 1.27746,-0.1742 1.742,-0.45001 z m 8.63767,-7.46159 h -2.29363 l -1.75652,5.2115 -1.74201,-5.2115 h -2.33719 l 3.06303,7.83902 h 2.0033 z"
       id="text1"
       style="font-size:14.5167px;line-height:0.87;font-family:Gotham;-inkscape-font-specification:Gotham;letter-spacing:-0.449792px;word-spacing:0px;stroke-width:0.822991;stroke-linecap:round;stroke-linejoin:round;paint-order:markers stroke fill"
       aria-label="tv" /><path
       d="m 86.748832,200.9236 q 0,1.5685 1.172711,2.69723 1.158052,1.12874 2.741212,1.12874 1.597819,0 2.755871,-1.12874 1.172711,-1.12873 1.172711,-2.69723 0,-1.02612 -0.542379,-1.87634 -0.542379,-0.86487 -1.45123,-1.37793 -0.894192,-0.51307 -1.934973,-0.51307 -1.011463,0 -1.920314,0.51307 -0.908851,0.51306 -1.45123,1.37793 -0.542379,0.85022 -0.542379,1.87634 z m -4.676185,-13.31027 4.676185,-0.0147 v 6.18605 l 0.337154,-0.14659 0.337155,-0.14659 q 1.58316,-0.57169 3.239614,-0.57169 1.671113,0 3.254273,0.57169 1.539183,0.5717 2.770529,1.68577 1.216688,1.09942 1.890997,2.56531 0.688967,1.48055 0.688967,3.18098 0,1.74441 -0.674308,3.19564 -0.674309,1.45123 -1.905656,2.57996 -1.246005,1.12873 -2.770529,1.68577 -1.539183,0.60102 -3.254273,0.60102 -2.24281,0 -4.236418,-1.05544 -1.993609,-1.04078 -3.16632,-2.87315 -1.172711,-1.80304 -1.18737,-4.03119 z m 18.113023,0.088 4.67619,-0.0147 v 20.78631 l -4.67619,0.0586 z m 10.8129,11.31666 q 0.54238,-0.86487 1.45123,-1.37793 0.90885,-0.4984 1.92032,-0.4984 1.04078,0 1.93497,0.4984 0.90885,0.51306 1.45123,1.37793 0.54238,0.86488 0.54238,1.891 0,1.55384 -1.17271,2.68258 -1.15805,1.11407 -2.75587,1.11407 -1.58316,0 -2.74121,-1.11407 -1.17271,-1.12874 -1.17271,-2.68258 0,-1.02612 0.54237,-1.891 z m 7.31479,9.4843 4.64687,0.044 0.0147,-7.63728 q 0,-1.71509 -0.68896,-3.19564 -0.67431,-1.43657 -1.90566,-2.55064 -1.17271,-1.08476 -2.75587,-1.67112 -1.58316,-0.58635 -3.25427,-0.58635 -1.68577,0 -3.25427,0.60101 -1.56851,0.5717 -2.75588,1.65646 -1.20202,1.08475 -1.89099,2.55064 -0.68897,1.48055 -0.68897,3.19564 0,2.27213 1.18737,4.11915 1.17271,1.8177 3.16632,2.87314 1.99361,1.04078 4.23642,1.04078 1.70043,0 3.25427,-0.60101 0.21988,-0.0733 0.68897,-0.27852 z m 7.95442,-4.72016 q 1.39259,1.3926 3.40086,1.3926 2.09622,0 2.09622,-1.23135 0,-0.64499 -1.15805,-0.95283 -0.8209,-0.19056 -2.60929,-0.65965 -1.45123,-0.38113 -2.44803,-1.40725 -0.98215,-1.01146 -0.98215,-3.10769 0,-1.61247 0.80624,-2.72655 0.8209,-1.11407 2.12554,-1.64179 1.33396,-0.54238 2.91712,-0.54238 0.89419,0 1.8177,0.2492 0.99681,0.30784 1.78839,0.76226 0.86487,0.48374 1.52452,1.08476 l -2.57996,2.5653 q -1.12874,-0.85021 -2.4627,-0.85021 -1.59781,0 -1.59781,0.89419 0,0.80624 1.18737,1.12873 1.30464,0.35182 2.62394,0.65965 1.45123,0.36648 2.41871,1.34862 0.98215,0.99681 0.98215,3.137 0,1.59782 -0.85022,2.75587 -0.85021,1.17272 -2.27213,1.74441 -1.42191,0.60102 -2.94643,0.60102 -1.27532,0 -2.30145,-0.20523 -1.02612,-0.19056 -1.92031,-0.64499 -0.92351,-0.45442 -1.93497,-1.21669 z m 12.79185,-6.28866 h -3.09303 l 1.05544,-4.01654 h 2.03759 v -5.7756 l 4.67618,0.0293 v 5.74628 h 3.10769 l -1.04078,4.01654 h -2.06691 v 4.96936 q 0,1.99361 2.49201,1.99361 0.80624,0 1.23135,-0.19057 l -1.34862,4.66153 q -0.36647,0.0586 -0.71828,0.0586 -2.09622,0 -3.48882,-0.67431 -1.40725,-0.67431 -2.12554,-2.03759 -0.71828,-1.34862 -0.71828,-3.44484 z"
       id="text2"
       style="font-size:30.0214px;line-height:0.87;font-family:TypoGraphica;-inkscape-font-specification:TypoGraphica;letter-spacing:0.185208px;word-spacing:0px;stroke-width:1.70199;stroke-linecap:round;stroke-linejoin:round;paint-order:markers stroke fill"
       aria-label="blast" /></g></svg>
