<?xml version="1.0" encoding="UTF-8" standalone="no"?>
<svg
   width="79.978516"
   height="26.292969"
   viewBox="0 0 79.978516 26.292969"
   version="1.1"
   id="svg717"
   sodipodi:docname="fdj.svg"
   xmlns:inkscape="http://www.inkscape.org/namespaces/inkscape"
   xmlns:sodipodi="http://sodipodi.sourceforge.net/DTD/sodipodi-0.dtd"
   xmlns="http://www.w3.org/2000/svg"
   xmlns:svg="http://www.w3.org/2000/svg">
  <sodipodi:namedview
     id="namedview719"
     pagecolor="#ffffff"
     bordercolor="#000000"
     borderopacity="0.25"
     inkscape:showpageshadow="2"
     inkscape:pageopacity="0.0"
     inkscape:pagecheckerboard="0"
     inkscape:deskcolor="#d1d1d1"
     showgrid="false" />
  <defs
     id="defs699" />
  <g
     fill="none"
     fill-rule="evenodd"
     id="g715"
     transform="translate(-2.3769531,-1.9570312)">
    <g
       fill-rule="nonzero"
       id="g713">
      <g
         id="g711">
        <path
           id="path703"
           style="fill:#000000;fill-opacity:1"
           d="M 8.4570312,1.9570312 2.3769531,28.25 H 67.683594 c 5.375994,0 9.35861,-3.340927 10.599609,-8.669922 L 82.355469,1.9570312 Z M 62.673828,4.8496094 c 0.338714,-0.00116 0.690469,0.083266 1.042969,0.2910156 2.901997,1.7089983 1.30339,7.864985 0.525391,8.458984 l -0.002,0.002 c -0.884999,0.434 -7.113859,-0.828925 -7.380859,-4.1699214 -0.182,-2.1809978 2.800703,-2.7659063 2.970703,-2.8789062 0.138125,-0.091812 1.375989,-1.6980818 2.84375,-1.703125 z m 7.222656,1.7167968 c 2.176998,-0.1819998 2.775,2.7927502 2.875,2.96875 0.114,0.1689999 2.522062,2.0065798 1.414063,3.8925778 -0.738999,1.246999 -2.300627,1.66211 -3.890625,1.66211 l 1.078125,-4.671875 -4.675781,-1.0820315 c 0.697999,-1.4249986 1.75222,-2.6515314 3.199218,-2.7695313 z m -26.232422,0.064453 h 8.390626 L 49.46875,17.798828 c -1.576998,6.768993 -8.699175,7.270232 -11.826172,4.615234 l 2.330078,-2.724609 c 2.325998,1.505999 4.551657,0.656949 5.472656,-3.373047 L 46.900391,9.90625 h -3.976563 z m -31.486328,0.00195 h 18.552735 c 3.025997,0 4.964923,0.4537197 6.294922,1.3867187 1.781998,1.2299988 2.56264,3.0043771 2.55664,5.2343751 0,4.675996 -3.451677,9.264126 -8.388672,10.078125 -1.235998,0.184 -2.482423,0.26986 -3.732421,0.25586 h -5.644532 c 0,0 1.099001,-4.664847 1.875,-7.964844 0.424,-1.805998 2.035627,-3.082938 3.890625,-3.085938 h 1.1875 l -1.865234,7.94336 h 1.550781 c 2.506998,0 4.489736,-0.897784 5.677734,-3.175781 0.592,-1.125999 0.897625,-2.381299 0.890626,-3.654297 -0.016,-0.962999 -0.387017,-1.887704 -1.041016,-2.595703 -0.828999,-0.793 -1.68333,-1.1308602 -3.611328,-1.1308602 H 15.792969 l -0.941407,4.0898442 h 5.160157 l -0.751953,3.267578 h -5.177735 l -1.451172,6.292969 H 8.2636719 Z m 47.21875,7.3027348 c 2.072716,0.01022 4.165876,0.706907 4.5,1.144531 l -0.01172,-0.002 c 0.448999,0.883999 -0.811207,7.11086 -4.158204,7.380859 -2.179997,0.182 -2.764953,-2.800703 -2.876953,-2.970703 -0.113,-0.169 -2.522108,-2.004767 -1.412109,-3.884765 0.747687,-1.268312 2.346872,-1.675918 3.958984,-1.667969 z m 6.544922,1.408203 c 1.788225,-0.004 6.584735,1.326362 6.81836,4.255859 0.181999,2.176998 -2.800704,2.762 -2.970704,2.875 -0.168999,0.114 -2.004767,2.522062 -3.884765,1.414063 -2.898997,-1.707998 -1.299484,-7.868891 -0.521485,-8.462891 0.110625,-0.05425 0.303134,-0.08146 0.558594,-0.08203 z m -3.021484,6.023438 0.429687,0.06445 c -0.293999,1.474998 -0.985001,2.843126 -2,3.953125 l -0.955078,-0.953125 v -0.002 -0.002 c 1.127999,-0.744999 2.007391,-1.810548 2.525391,-3.060546 z" />
      </g>
    </g>
  </g>
</svg>
