<?xml version="1.0" encoding="UTF-8" standalone="no"?>
<svg
   width="79.981003"
   height="26.292999"
   viewBox="0 0 79.981003 26.292999"
   version="1.1"
   id="svg717"
   sodipodi:docname="fdj.svg"
   xmlns:inkscape="http://www.inkscape.org/namespaces/inkscape"
   xmlns:sodipodi="http://sodipodi.sourceforge.net/DTD/sodipodi-0.dtd"
   xmlns="http://www.w3.org/2000/svg"
   xmlns:svg="http://www.w3.org/2000/svg">
  <sodipodi:namedview
     id="namedview719"
     pagecolor="#ffffff"
     bordercolor="#000000"
     borderopacity="0.25"
     inkscape:showpageshadow="2"
     inkscape:pageopacity="0.0"
     inkscape:pagecheckerboard="0"
     inkscape:deskcolor="#d1d1d1"
     showgrid="false" />
  <defs
     id="defs699" />
  <g
     fill="none"
     fill-rule="evenodd"
     id="g715"
     transform="translate(-2.3759999,-1.957)">
    <g
       fill-rule="nonzero"
       id="g713">
      <g
         id="g711">
        <path
           fill="url(#7q0k5kryna)"
           d="M 82.357,1.957 H 8.457 L 2.376,28.25 h 65.307 c 5.376,0 9.36,-3.341 10.601,-8.67 L 82.356,1.957 Z"
           id="path703"
           style="fill:#000000;fill-opacity:1"
           inkscape:export-filename="fdj.png"
           inkscape:export-xdpi="96"
           inkscape:export-ydpi="96" />
        <path
           fill="#ffffff"
           d="M 42.924,9.906 H 46.9 l -1.455,6.41 c -0.921,4.03 -3.146,4.88 -5.472,3.374 l -2.331,2.724 c 3.127,2.655 10.25,2.153 11.827,-4.616 L 52.054,6.63 h -8.39 z M 64.242,13.6 C 65.02,13.006 66.618,6.849 63.716,5.14 61.836,4.032 60,6.44 59.83,6.553 c -0.17,0.113 -3.152,0.698 -2.97,2.879 0.267,3.341 6.495,4.604 7.38,4.17 z M 37.025,8.02 C 35.695,7.087 33.757,6.633 30.731,6.633 H 12.178 L 8.263,23.575 h 4.367 l 1.452,-6.294 h 5.177 l 0.752,-3.267 h -5.16 l 0.942,-4.09 h 14.578 c 1.928,0 2.783,0.338 3.612,1.131 0.654,0.708 1.024,1.633 1.04,2.596 0.007,1.273 -0.299,2.528 -0.891,3.654 -1.188,2.278 -3.17,3.175 -5.677,3.175 h -1.55 l 1.865,-7.942 h -1.188 c -1.855,0.003 -3.466,1.28 -3.89,3.086 -0.776,3.3 -1.875,7.963 -1.875,7.963 h 5.643 c 1.25,0.014 2.498,-0.071 3.734,-0.255 4.937,-0.814 8.388,-5.403 8.388,-10.079 0.006,-2.23 -0.775,-4.003 -2.557,-5.233 z m 23.37,16.41 0.954,0.954 c 1.015,-1.11 1.707,-2.478 2.001,-3.953 l -0.43,-0.063 c -0.518,1.25 -1.397,2.315 -2.525,3.06 v 0.003 z M 72.772,9.536 C 72.672,9.36 72.074,6.384 69.897,6.566 68.45,6.684 67.396,7.911 66.698,9.336 l 4.675,1.082 -1.078,4.672 c 1.59,0 3.152,-0.416 3.891,-1.663 1.108,-1.886 -1.3,-3.722 -1.414,-3.891 z m -8.875,5.545 c -0.594,-0.778 -6.751,-2.376 -8.46,0.523 -1.11,1.88 1.299,3.716 1.412,3.885 0.112,0.17 0.698,3.152 2.878,2.97 3.347,-0.27 4.607,-6.496 4.158,-7.38 z m 1.485,0.345 c -0.778,0.594 -2.376,6.754 0.523,8.462 1.88,1.108 3.716,-1.3 3.885,-1.414 0.17,-0.113 3.152,-0.698 2.97,-2.875 -0.267,-3.348 -6.493,-4.607 -7.378,-4.173 z"
           id="path705" />
      </g>
    </g>
  </g>
</svg>
