<?xml version="1.0" encoding="UTF-8" standalone="no"?>
<!-- Created with Inkscape (http://www.inkscape.org/) -->

<svg
   width="114.82915mm"
   height="51.950798mm"
   viewBox="0 0 114.82915 51.950798"
   version="1.1"
   id="svg5"
   xml:space="preserve"
   xmlns:inkscape="http://www.inkscape.org/namespaces/inkscape"
   xmlns:sodipodi="http://sodipodi.sourceforge.net/DTD/sodipodi-0.dtd"
   xmlns="http://www.w3.org/2000/svg"
   xmlns:svg="http://www.w3.org/2000/svg"><sodipodi:namedview
     id="namedview7"
     pagecolor="#ffffff"
     bordercolor="#000000"
     borderopacity="0.25"
     inkscape:showpageshadow="2"
     inkscape:pageopacity="0.0"
     inkscape:pagecheckerboard="0"
     inkscape:deskcolor="#d1d1d1"
     inkscape:document-units="mm"
     showgrid="false" /><defs
     id="defs2" /><g
     inkscape:label="Calque 1"
     inkscape:groupmode="layer"
     id="layer1"
     transform="translate(-231.60842,-19.598577)"><path
       style="fill:#000000;stroke-width:0.176389"
       d="m 291.36472,71.200094 c -2.97401,-0.627075 -5.46999,-1.666245 -7.96667,-3.316834 -1.17446,-0.776452 -4.51741,-3.812625 -4.51741,-4.102855 0,-0.49022 4.58969,-10.81103 5.18679,-11.663518 l 0.23593,-0.336832 1.70092,1.343358 c 2.4285,1.917977 4.42791,3.121121 6.12786,3.687412 l 1.47697,0.492015 1.6757,0.02362 c 1.96421,0.02768 3.05989,-0.243336 3.95,-0.977039 0.83438,-0.687765 0.87857,-0.601622 -0.99549,-1.940455 -11.9498,-8.536969 -17.36328,-20.687319 -12.78516,-28.695829 3.2201,-5.632922 10.59876,-7.463267 20.63447,-5.118569 l 1.5434,0.360594 v 5.387709 5.387709 l -0.74224,-0.118688 c -5.38603,-0.861261 -9.90338,-0.254403 -11.59353,1.557465 l -0.42952,0.460452 0.60591,0.635439 c 0.33325,0.349491 1.99497,1.677422 3.69271,2.950957 8.34698,6.261352 11.79823,10.249184 13.33637,15.409852 l 0.46168,1.549019 0.0113,2.204861 c 0.038,7.427783 -5.07636,13.155972 -13.21967,14.806348 l -1.79159,0.363096 -2.52993,-0.01242 c -1.73852,-0.0085 -3.01131,-0.11391 -4.06877,-0.336876 z M 299.757,67.58786 c 4.80022,-1.287205 8.07084,-4.168366 9.29065,-8.184328 l 0.39154,-1.289035 -0.0859,-1.969711 -0.0859,-1.96971 -0.48596,-1.322917 c -0.89832,-2.445452 -2.292,-4.478839 -4.76427,-6.951111 -1.46648,-1.466481 -4.11386,-3.726125 -4.2266,-3.607581 -0.0333,0.03496 0.6065,1.405578 1.42166,3.04583 0.81516,1.640253 1.73503,3.743691 2.04416,4.674306 l 0.56204,1.692028 0.0106,1.948812 0.0106,1.948809 -0.66,1.33604 c -2.46993,4.999858 -10.30654,5.381119 -17.00559,0.827342 l -0.73225,-0.497763 -1.06611,2.421853 c -0.58636,1.332019 -1.14423,2.630627 -1.23972,2.885797 l -0.17362,0.463947 0.47267,0.440182 c 4.04617,3.768037 11.03163,5.52584 16.32195,4.10721 z M 231.60842,44.914659 V 26.570214 h 14.64027 14.64028 v 4.408203 4.408204 l -9.5691,0.04562 -9.56909,0.04562 v 3.086806 3.086805 l 8.33437,0.04582 8.33438,0.04583 v 4.141685 4.141685 l -8.33438,0.04582 -8.33437,0.04582 -0.0462,6.570486 -0.0462,6.570486 h -5.02494 -5.02494 z m 34.21944,0 V 26.570214 h 5.02708 5.02709 v 18.344445 18.344444 h -5.02709 -5.02708 z m 50.97639,0 V 26.570214 h 14.81667 14.81666 v 4.321528 4.321528 h -9.78958 -9.78958 v 2.734028 2.734027 h 8.46666 8.46667 v 4.056945 4.056944 h -8.46667 -8.46666 v 2.910417 2.910417 h 9.78958 9.78958 v 4.321528 4.321527 h -14.81666 -14.81667 z"
       id="path597" /></g></svg>
