<?xml version="1.0" encoding="utf-8"?>
<!-- Generator: Adobe Illustrator 23.0.1, SVG Export Plug-In . SVG Version: 6.00 Build 0)  -->
<svg version="1.1" id="Calque_1" xmlns="http://www.w3.org/2000/svg" xmlns:xlink="http://www.w3.org/1999/xlink" x="0px" y="0px"
	 viewBox="0 0 595.28 318.31" style="enable-background:new 0 0 595.28 318.31;" xml:space="preserve">
<path d="M559.41,25.78c-2.16-2.78-6.48-7.41-14.21-12.36c-15.13-9.57-28.1-10.8-44.78-10.8h-70.12l-49.1,218.03h54.04l16.37-71.95
	h23.81c14.51,0,27.17-0.62,41.07-4.63c13.28-4.02,22.24-10.51,26.56-13.9c26.87-21,29.34-50.34,29.34-62.38
	C572.38,45.54,564.97,32.57,559.41,25.78 M502.89,101.44c-8.65,6.79-16.99,8.03-27.48,8.03h-14.85L476,41.53h8.98
	c11.73,0,23.16,2.16,29.34,13.59c3.09,5.87,3.4,12.35,3.4,14.51C517.72,81.37,511.84,94.34,502.89,101.44"/>
<path d="M360.49,169.83c0,0-22.48,4.25-44.56-2.63c-22.07-6.88-37.69-27.5-33.43-55.65c4.69-28.86,24.19-49.34,48.65-57.49
	c24.45-8.15,46.01-2.49,56.85,1.2l11.11-46.25C385.01,3.3,370.75,0,354.63,0c-29.64,0-61.79,12.86-85.83,34.11
	c-23.2,20.69-38.58,48.36-43.05,77.15c-5.04,31.32,1.12,58.72,20.96,79.69c18.73,19.85,45.02,31.03,74.36,31.03
	c9.82,0,18.53-1.4,27.78-3.64L360.49,169.83z"/>
<polygon points="198.71,2.61 144.44,2.61 95.38,220.45 199.18,220.45 209.42,176.11 159.57,176.11 "/>
<path d="M31.08,266.35l4.27,51.96H24.4l-0.56-8.75h-10.4l-3.25,8.75H0l20.26-51.96H31.08z M23.22,287.57l0.07-7.86h-0.14l-2.34,7.86
	l-4.41,13.85h7.24L23.22,287.57z"/>
<path d="M67.19,278.06c-1.72-1.79-4.07-3.31-6.9-3.31c-3.16,0-5.45,1.93-5.99,5.1c-1.31,8.55,14.27,9.03,11.99,23.08
	c-1.44,9.24-7.85,16.21-17.5,16.21c-2.89,0-6.34-0.9-8.41-2.63l1.58-9.79c2.14,1.65,4.28,2.76,7.31,2.76c3.31,0,6.27-2.2,6.82-5.65
	c0.62-4-2.27-5.52-4.83-7.59c-5.3-4-8.35-7.85-7.17-15.43c1.31-8.2,7.17-15.3,15.99-15.3c3.31,0,6.14,0.89,8.68,2.55L67.19,278.06z"
	/>
<path d="M97.51,278.06c-1.72-1.79-4.07-3.31-6.9-3.31c-3.16,0-5.45,1.93-5.99,5.1c-1.31,8.55,14.27,9.03,11.99,23.08
	c-1.44,9.24-7.85,16.21-17.5,16.21c-2.89,0-6.34-0.9-8.41-2.63l1.58-9.79c2.14,1.65,4.28,2.76,7.31,2.76c3.31,0,6.28-2.2,6.82-5.65
	c0.62-4-2.27-5.52-4.83-7.59c-5.31-4-8.34-7.85-7.17-15.43c1.31-8.2,7.17-15.3,15.99-15.3c3.31,0,6.14,0.89,8.68,2.55L97.51,278.06z
	"/>
<polygon points="129.01,266.35 127.5,275.99 117.08,275.99 115.3,287.3 124.45,287.3 122.94,296.94 113.78,296.94 111.91,308.66 
	122.46,308.66 120.95,318.31 100.13,318.31 108.33,266.35 "/>
<polygon points="151.34,266.35 151.54,297.01 151.68,297.01 160.64,266.35 174.43,266.35 171.67,318.31 161.12,318.31 
	164.57,280.89 164.43,280.89 160.78,293.71 152.44,318.31 144.51,318.31 143.41,293.43 143.55,281.85 143.68,280.89 143.55,280.89 
	136.1,318.31 125.07,318.31 137.83,266.35 "/>
<path d="M176.9,318.31l8.2-51.96h10.06c4,0,7.44,0.13,10.33,2.82c3.03,2.76,4.14,7.37,3.45,11.71c-0.76,4.62-3.03,8.13-7.3,10.76
	c4,2.07,5.23,7.58,4.54,12.06c-1.65,10.27-9.93,14.61-19.3,14.61H176.9z M190.75,295.64l-2.21,14.06c4.07,0.2,6.97-2.82,7.66-7.16
	C196.89,298.47,194.82,295.5,190.75,295.64 M194.06,274.96l-2.07,12.69c3.86,0,6.62-2.63,7.24-6.55
	C199.78,277.3,197.99,274.76,194.06,274.96"/>
<polygon points="228.38,266.35 221.7,308.66 232.45,308.66 230.92,318.31 209.9,318.31 218.11,266.35 "/>
<path d="M264.49,266.35l-1.51,9.64h-10.41l-1.78,11.31h9.17l-1.52,9.65h-9.17l-1.86,11.71h10.55l-1.52,9.65h-20.82l8.2-51.97H264.49
	z M264.91,254.07l-10.4,9.51l-4.34-2.76l8.19-9.92L264.91,254.07z"/>
<polygon points="291.51,266.35 289.99,275.99 279.58,275.99 277.79,287.3 286.95,287.3 285.44,296.94 276.27,296.94 274.41,308.66 
	284.96,308.66 283.44,318.31 262.62,318.31 270.83,266.35 "/>
<path d="M324.58,266.35l7.86,31.36l0.2-0.14c-0.27-2.47,0-5.16,0.42-7.85l3.65-23.36h10.27l-8.2,51.96h-9.72l-7.73-31.36l-0.13,0.14
	l-0.34,5.23l-0.27,2.14l-3.79,23.84h-10.27l8.2-51.96H324.58z"/>
<path d="M374,266.35l4.27,51.96h-10.95l-0.56-8.75h-10.4l-3.25,8.75h-10.19l20.26-51.96H374z M366.14,287.57l0.07-7.86h-0.14
	l-2.34,7.86l-4.41,13.85h7.24L366.14,287.57z"/>
<polygon points="410.66,266.35 409.14,275.99 401.01,275.99 394.32,318.31 384.05,318.31 390.74,275.99 382.67,275.99 
	384.19,266.35 "/>
<polygon points="425.61,266.35 417.41,318.31 407.14,318.31 415.34,266.35 "/>
<path d="M463.52,292.33c-3.1,19.5-13.38,26.81-22.54,26.81c-9.16,0-17.09-7.31-13.98-26.81c3.1-19.5,13.29-26.81,22.46-26.81
	C458.62,265.51,466.62,272.83,463.52,292.33 M442.5,309.63c6.82,0,9.37-13.16,10.06-17.3c0.69-4.61,2.21-17.3-4.61-17.3
	c-6.82,0-9.31,12.69-10,17.3C437.26,296.47,435.67,309.63,442.5,309.63"/>
<path d="M482.88,266.35l7.86,31.36l0.2-0.14c-0.27-2.47,0-5.16,0.42-7.85l3.65-23.36h10.27l-8.2,51.96h-9.72l-7.73-31.36l-0.13,0.14
	l-0.34,5.23l-0.27,2.14l-3.79,23.84h-10.27l8.2-51.96H482.88z"/>
<path d="M532.29,266.35l4.27,51.96h-10.95l-0.56-8.75h-10.4l-3.25,8.75h-10.19l20.26-51.96H532.29z M524.44,287.57l0.07-7.86h-0.14
	l-2.34,7.86l-4.41,13.85h7.24L524.44,287.57z"/>
<polygon points="559.17,266.35 552.49,308.66 563.24,308.66 561.71,318.31 540.69,318.31 548.9,266.35 "/>
<polygon points="595.28,266.35 593.76,275.99 583.35,275.99 581.57,287.3 590.73,287.3 589.22,296.94 580.05,296.94 578.18,308.66 
	588.73,308.66 587.22,318.31 566.4,318.31 574.6,266.35 "/>
</svg>
