<?xml version="1.0" encoding="utf-8"?>
<!-- Generator: Adobe Illustrator 19.2.1, SVG Export Plug-In . SVG Version: 6.00 Build 0)  -->
<svg version="1.1" id="layer" xmlns="http://www.w3.org/2000/svg" xmlns:xlink="http://www.w3.org/1999/xlink" x="0px" y="0px"
	 viewBox="0 0 652 652" style="enable-background:new 0 0 652 652;" xml:space="preserve">
<style type="text/css">
	.st0{fill:#055E9F;}
	.st1{fill:#989AA1;}
	.st2{fill:#1F1F1D;}
	.st3{fill:none;stroke:#1F1F1D;stroke-width:4.547298e-002;}
</style>
<path class="st0" d="M398.1,460c4.3,7.2,9.4,11.7,18.2,11.7c9.1,0,15.6-7.5,15.6-16.5c0-20.8-35.1-11.6-35.1-36.9
	c0-14.4,11.4-21.4,24.8-21.4c5.4,0,11.9,1.6,16.1,5.4c-1.4,3-2.1,6.1-3,9.2h-1.2c-2.3-5.9-7.3-9.6-13.8-9.6c-7.7,0-14.1,5-14.1,13
	c0,20.7,35.3,12.4,35.3,36.3c0,15.9-12.4,25.6-27.7,25.6c-5.5,0-14.4-2.5-18.2-6.7c1.1-3.2,1.7-6.5,2.2-9.9H398.1z"/>
<path class="st0" d="M355.1,432h17.4c3.5,0,6.7-0.5,10-0.6l-0.3,2.8l0.3,3.2c-3.3-0.1-6.5-0.6-10-0.6h-17.4v32.9
	c6.8,0.1,13.6-0.2,20.4-0.5c3.5-0.1,6.8-0.4,10.3-1.1l-0.3,3.4l0.3,3.3h-40.5v-76.4H385l-0.3,3.5l0.3,3.3c-3.3-0.7-6.7-1-10-1.3
	l-11.2-0.2h-8.7V432z"/>
<path class="st0" d="M240.2,398.4c1.5,0.1,3.3,0.3,4.9,0.3c1.6,0,3.2-0.2,4.9-0.3v76.7c-1.8-0.1-3.3-0.3-4.9-0.3
	c-1.6,0-3.4,0.2-4.9,0.3V398.4z"/>
<path class="st0" d="M330.8,475.2h-3.4c-1.2-1.6-3.5-4.3-5.8-6.8l-48.5-53.7H272v60.5l-3.1-0.3l-3.1,0.3v-76.7h4.4l53.2,57.8h1
	v-57.8l3.2,0.3l3.2-0.3V475.2z"/>
<path class="st0" d="M219.6,398.4c2.9,27.7,6.2,55.4,9.2,76.7c-2.2-0.1-3.6-0.3-5.4-0.3c-1.7,0-3.6,0.2-5.2,0.3
	c-1.9-22.6-4.2-46.7-5.8-58c-13,23.3-22.6,41.3-29.3,56.6h-1.3l-6.1-12.5c-7.1-14.8-15-29.4-22.6-44.1c-2.5,22.1-5.5,44.2-5.5,58
	c-1.4-0.1-2.7-0.3-3.9-0.3c-1.4,0-2.7,0.2-4,0.3c3-18,9.7-65,10.8-76.7h2.9c8.9,17.9,19.7,39,31.7,58.9c10.7-19.2,21-38.8,32.3-58.9
	H219.6z"/>
<path class="st0" d="M302.8,219.9l99.7-86.8l118.9-59.7l-98,82.9c2,3.4,4.1,7,5.8,10.6l167.8-94.5L439.5,194.7
	c2.7,10.6,4.1,21.7,4.1,33.2c0,78.7-67.2,142.6-150.1,142.6c-26.7,0-51.8-6.5-73.5-18.2L395.1,257l-126.8,96.5
	c8.1,1.7,16.6,2.6,25.1,2.6c70.2,0,127-57.5,127-128.3c0-22.6-5.8-43.9-15.9-62.3L302.8,219.9z"/>
<path class="st0" d="M181.5,288.7c-9.6-18.1-15.1-38.8-15.1-60.8c0-70.8,56.8-128.3,127.1-128.3c7.7,0,15.1,0.7,22.5,2l0.9,1.2
	l-126.1,93.6L367,103.5c-21.5-11.2-47.3-18.2-73.5-18.2c-82.9,0-150.1,63.8-150.1,142.6c0,11.3,1.3,22.1,3.9,32.6L-10.4,382.2
	l167.5-94.8c2,4.3,4.3,8.4,6.8,12.4L59.5,383.7l123.9-61.3l99.6-89.6L181.5,288.7"/>
<polygon class="st0" points="132.7,385 187.9,328 341.1,243.5 214.4,346.6 "/>
<polygon class="st0" points="248.2,208.6 372.6,108.3 452.1,72.4 398.6,127 "/>
<path class="st1" d="M71.3,499c4-0.2,13.5-0.4,19.3,0.1c10.7,0.7,15.2,6.8,15.2,14.4c0,9.9-7.8,16.9-21.3,18
	c-4.6,0.4-9.9,0.4-13.2,0V499z M71.3,536c3.3,0,12,0.8,18.1-0.2c18.9-3.1,28.6-9.4,28.6-22.9c0-13.4-8.5-18.3-34.6-18.3H59.6v76.5
	c1.7-0.1,3.9-0.3,5.8-0.3c1.9,0,3.7,0.2,5.9,0.3V536z"/>
<path class="st1" d="M152.2,545.8c0,3.1,0.1,5.1-0.3,8.2c-1,7-6.5,14.7-15.7,15.2c-7.6,0.5-11.2-5.6-10.7-11.1
	c1.3-12.5,6.1-10.8,20.8-15.4l5.8-1.7V545.8z M152.2,538.3l-2.1,0.9c-4.9,2-4.8,1.8-13.8,3.6c-10.5,2.2-21.3,3.6-21.9,15.7
	c-0.3,7.6,7.6,13.3,16.7,13.8c8.8,0.5,17.6-3.4,20.5-10.7v9.3h17.7v-2.2H163v-33.6c0-9-1.5-17.1-20.6-18c-5.3-0.3-4.5,0.2-8.2,0.7
	c-4.4,0.6-8.4,1.9-11.3,3v16.2h2.5l3.2-6.9c2.8-5.7,3.2-11.9,12.6-11.2c9.4,0.9,11,6.1,11,11.6V538.3z"/>
<path class="st1" d="M205.3,570.9h-26.2v-2.2h6.5v-48.2h-6.8v-2.1h16.9v11c0.7-4,6.8-11.3,16.3-11.3c2.8,0,5.3,0.5,8,1.7v19.1h-2.7
	l-3.5-8.9c-2.6-6.1-4.4-10-8.1-8.1c-9.9,4.5-9,15.8-9,26.7v20.2h8.5V570.9z"/>
<path class="st1" d="M226.2,570.9v-2.2h6.7v-48.2h-6.3v-2h17.5v50.2h6v2.2H226.2z M244.5,506.3c0,3.4-3.3,5.7-7.1,5.7
	c-3.7,0-7-2.6-7-5.6c0-2.9,3.2-6,6.8-6C241.2,500.4,244.5,503.2,244.5,506.3"/>
<path class="st1" d="M295.3,530.7c-2.7-8.3-5.5-11.4-13-11.4c-6.5,0-14.8,2.3-15.3,8.9c-0.4,5.8,7,8.4,13.6,10
	c11.3,3.2,24.4,6.8,24,17.3c-0.2,9.9-10.3,17.3-23.8,17c-7.8-0.1-16.7-2.6-19.7-4.5v-17.1h2.6l3.1,8.7c3.3,9.7,7.1,9.8,12.9,10.3
	c8.3,0.8,17.7-2.6,18.3-9.5c1.1-8.2-12.2-10.5-20.6-12.9c-6-1.9-17.6-5.1-17.6-14.9c0-11.6,15.1-15.5,23-15.5
	c6.7,0,14.4,2.1,17.2,3.6v15.8h-2.8L295.3,530.7z"/>
<path class="st2" d="M333.5,571.2c-2.2,0-4,0-5.9,0c-1.9,0-4,0-5.8,0v-71.4c-13.6,0-21.8,0.7-29.4,1.4l0.5-3.3l-0.5-3.3h69.2
	l-0.3,3.3l0.3,3.3c-6.7-0.7-16.1-1.4-28-1.4V571.2z"/>
<path class="st3" d="M333.5,571.2c-2.2,0-4,0-5.9,0c-1.9,0-4,0-5.8,0v-71.4c-13.6,0-21.8,0.7-29.4,1.4l0.5-3.3l-0.5-3.3h69.2
	l-0.3,3.3l0.3,3.3c-6.7-0.7-16.1-1.4-28-1.4V571.2z"/>
<path class="st2" d="M363.2,530.5c1-5.7,5.6-11.4,12-11.6c7.6-0.3,10.5,6.5,10.7,12.4l0.1,5.8H362L363.2,530.5z M398.4,551.4h-2.8
	l-0.1,1.3c-0.7,7.3-6.7,17.7-17.9,17.1c-12.7-0.6-15.5-11.7-15.5-24.3v-6h36.3c1.2-11.1-8-22.8-22.4-22.7
	c-14.9,0.2-25.1,12.7-25.9,27.4c-0.8,15.9,11.2,28.4,26.7,28.1c12.3-0.3,20.8-9.2,21.6-19.3L398.4,551.4z"/>
<path class="st3" d="M363.2,530.5c1-5.7,5.6-11.4,12-11.6c7.6-0.3,10.5,6.5,10.7,12.4l0.1,5.8H362L363.2,530.5z M398.4,551.4h-2.8
	l-0.1,1.3c-0.7,7.3-6.7,17.7-17.9,17.1c-12.7-0.6-15.5-11.7-15.5-24.3v-6h36.3c1.2-11.1-8-22.8-22.4-22.7
	c-14.9,0.2-25.1,12.7-25.9,27.4c-0.8,15.9,11.2,28.4,26.7,28.1c12.3-0.3,20.8-9.2,21.6-19.3L398.4,551.4z"/>
<path class="st2" d="M450.3,538.1l-1.5-4.4c-3.2-10.4-6.9-15.1-13.5-15.1c-14.1-0.2-16.4,15-16.1,26.3c0.3,10.7,1.5,24.2,16.2,24.4
	c8.7,0.1,14-6.7,15.4-14.1l0.7-3.9h2.7l-0.5,2.6c-2.2,13.8-11.3,18.1-21.4,18c-16.3-0.1-25.6-14.3-25.6-27.7
	c0-14.3,10.9-27.3,27.8-28c4.4-0.1,11.9,0.2,18.5,3.5v18.3H450.3z"/>
<path class="st3" d="M450.3,538.1l-1.5-4.4c-3.2-10.4-6.9-15.1-13.5-15.1c-14.1-0.2-16.4,15-16.1,26.3c0.3,10.7,1.5,24.2,16.2,24.4
	c8.7,0.1,14-6.7,15.4-14.1l0.7-3.9h2.7l-0.5,2.6c-2.2,13.8-11.3,18.1-21.4,18c-16.3-0.1-25.6-14.3-25.6-27.7
	c0-14.3,10.9-27.3,27.8-28c4.4-0.1,11.9,0.2,18.5,3.5v18.3H450.3z"/>
<path class="st2" d="M495.1,570.9v-2.2h7.7v-34.6c0-6.8,0.1-13.7-8.3-13.4c-12.2,0.4-13.7,14.6-13.7,25.1v22.9h8.3v2.2h-25.4v-2.2
	h6.2v-66.8h-6.5v-2.1h17.5V527c1.7-4.6,9.1-10.1,16.9-9.4c11.8,0.9,15.8,4.8,15.8,16v35.1h6.3v2.2H495.1z"/>
<path class="st3" d="M495.1,570.9v-2.2h7.7v-34.6c0-6.8,0.1-13.7-8.3-13.4c-12.2,0.4-13.7,14.6-13.7,25.1v22.9h8.3v2.2h-25.4v-2.2
	h6.2v-66.8h-6.5v-2.1h17.5V527c1.7-4.6,9.1-10.1,16.9-9.4c11.8,0.9,15.8,4.8,15.8,16v35.1h6.3v2.2H495.1z"/>
<polygon class="st0" points="580.4,443.3 535.3,443.3 571.8,469.8 557.2,513.6 594.2,486.6 631.2,513.9 616.5,470 653.5,443.3 
	608,443.3 594.2,400 "/>
</svg>
