<?xml version="1.0" encoding="UTF-8" standalone="no"?>
<svg
   width="38.099079"
   height="19.6437"
   viewBox="0 0 38.099079 19.6437"
   version="1.1"
   id="svg717"
   sodipodi:docname="fdj.svg"
   xmlns:inkscape="http://www.inkscape.org/namespaces/inkscape"
   xmlns:sodipodi="http://sodipodi.sourceforge.net/DTD/sodipodi-0.dtd"
   xmlns="http://www.w3.org/2000/svg"
   xmlns:svg="http://www.w3.org/2000/svg">
  <sodipodi:namedview
     id="namedview719"
     pagecolor="#ffffff"
     bordercolor="#000000"
     borderopacity="0.25"
     inkscape:showpageshadow="2"
     inkscape:pageopacity="0.0"
     inkscape:pagecheckerboard="0"
     inkscape:deskcolor="#d1d1d1"
     showgrid="false" />
  <defs
     id="defs699" />
  <g
     fill="none"
     fill-rule="evenodd"
     id="g715"
     transform="translate(-23.890751,-4.4299536)">
    <g
       fill-rule="nonzero"
       id="g713">
      <g
         id="g711">
        <path
           id="path703"
           style="fill:#000000;fill-opacity:1"
           d="m -37.776819,-44.606276 -6.080078,26.292969 h 65.306641 c 5.375994,0 9.35861,-3.340927 10.599609,-8.669922 l 4.072266,-17.623047 z m 54.216797,2.892578 c 0.338714,-0.0012 0.690469,0.08327 1.042969,0.291016 2.901997,1.708998 1.30339,7.864985 0.525391,8.458984 l -0.002,0.002 c -0.884999,0.434 -7.113859,-0.828925 -7.380859,-4.169922 -0.182,-2.180998 2.800703,-2.765906 2.970703,-2.878906 0.138125,-0.09181 1.375989,-1.698082 2.84375,-1.703125 z m 7.222656,1.716797 c 2.176998,-0.182 2.775,2.79275 2.875,2.96875 0.114,0.169 2.522062,2.00658 1.414063,3.892578 -0.738999,1.246999 -2.300627,1.66211 -3.890625,1.66211 l 1.078125,-4.671875 -4.675781,-1.082032 c 0.697999,-1.424999 1.75222,-2.651531 3.199218,-2.769531 z m -26.2324221,0.06445 h 8.390626 l -2.585938,11.167969 c -1.576998,6.768993 -8.699175,7.270232 -11.826172,4.615234 l 2.330078,-2.724609 c 2.325998,1.505999 4.551657,0.656949 5.472656,-3.373047 l 1.455079,-6.410156 h -3.976563 z m -31.4863279,0.002 h 18.552735 c 3.025997,0 4.964923,0.45372 6.2949219,1.386719 1.781998,1.229999 2.56264,3.004377 2.55664,5.234375 0,4.675996 -3.4516769,9.264126 -8.3886719,10.078125 -1.235998,0.184 -2.482423,0.26986 -3.732421,0.25586 h -5.644532 c 0,0 1.099001,-4.664847 1.875,-7.964844 0.424,-1.805998 2.035627,-3.082938 3.890625,-3.085938 h 1.1875 l -1.865234,7.94336 h 1.550781 c 2.506998,0 4.489736,-0.897784 5.677734,-3.175781 0.592,-1.125999 0.897625,-2.381299 0.890626,-3.654297 -0.016,-0.962999 -0.387017,-1.887704 -1.041016,-2.595703 -0.828999,-0.793 -1.68333,-1.13086 -3.611328,-1.13086 h -14.578125 l -0.941407,4.089844 h 5.160157 l -0.751953,3.267578 h -5.177735 l -1.451172,6.292969 h -4.367187 z m 47.21875,7.302735 c 2.072716,0.01022 4.165876,0.706907 4.5,1.144531 l -0.01172,-0.002 c 0.448999,0.883999 -0.811207,7.11086 -4.158204,7.380859 -2.179997,0.182 -2.764953,-2.800703 -2.876953,-2.970703 -0.113,-0.169 -2.5221081,-2.004767 -1.4121091,-3.884765 0.747687,-1.268312 2.3468721,-1.675918 3.9589841,-1.667969 z m 6.544922,1.408203 c 1.788225,-0.004 6.584735,1.326362 6.81836,4.255859 0.181999,2.176998 -2.800704,2.762 -2.970704,2.875 -0.168999,0.114 -2.004767,2.522062 -3.884765,1.414063 -2.898997,-1.707998 -1.299484,-7.868891 -0.521485,-8.462891 0.110625,-0.05425 0.303134,-0.08146 0.558594,-0.08203 z m -3.021484,6.023438 0.429687,0.06445 c -0.293999,1.474998 -0.985001,2.843126 -2,3.953125 l -0.955078,-0.953125 v -0.002 -0.002 c 1.127999,-0.744999 2.007391,-1.810548 2.525391,-3.060546 z"
           inkscape:export-filename="fdj.svg"
           inkscape:export-xdpi="96"
           inkscape:export-ydpi="96" />
        <path
           style="fill:#000000;stroke-width:0.0186776"
           d="m 33.070611,23.861275 c 0.11133,-0.11681 0.88741,-0.91959 1.72464,-1.78396 l 1.52222,-1.57157 4.78147,-2.63625 c 2.62981,-1.44993 4.78987,-2.63984 4.80014,-2.64425 0.0265,-0.0114 0.29194,-0.22805 -3.98655,3.25447 l -3.92386,3.19387 -2.55286,1.20003 c -1.40407,0.66002 -2.55618,1.20004 -2.56023,1.20004 -0.004,0 0.0837,-0.0956 0.19503,-0.21238 z m -4.80319,0.12292 c 0.0103,-0.009 1.02307,-0.82358 2.25065,-1.80943 1.22759,-0.98584 2.55977,-2.05588 2.96041,-2.37787 0.40063,-0.32198 0.86404,-0.69418 1.02979,-0.8271 l 0.30137,-0.24167 -0.1127,-0.18958 c -0.062,-0.10427 -0.15838,-0.28034 -0.2142,-0.39127 l -0.10151,-0.20168 -0.10584,0.0597 c -0.68616,0.38684 -10.31615,5.83687 -10.35051,5.8578 -0.0402,0.0245 -0.0428,0.0246 -0.0187,5.6e-4 0.0154,-0.0153 2.20489,-1.7069 4.86552,-3.759 2.66062,-2.05211 4.87221,-3.75914 4.91464,-3.7934 l 0.0771,-0.0623 -0.036,-0.15468 c -0.0524,-0.22509 -0.11953,-0.61941 -0.15824,-0.92979 -0.0484,-0.38807 -0.0492,-1.51527 -10e-4,-1.90512 0.13287,-1.08256 0.41672,-2.03102 0.88411,-2.95422 0.92946,-1.8358902 2.50825,-3.3311302 4.44413,-4.2089602 0.98147,-0.44505 1.98942,-0.7139 3.12736,-0.83417 0.31628,-0.0334 1.55481,-0.0334 1.85842,0 1.30764,0.14397 2.5459,0.50396 3.62199,1.053 l 0.0919,0.0469 -0.11994,0.066 c -0.11097,0.0611 -10.79485,5.6928002 -10.87825,5.7341702 -0.0249,0.0123 -0.0311,0.0123 -0.0187,-1.2e-4 0.0103,-0.0103 0.96843,-0.72311 2.12924,-1.58409 1.16082,-0.8609902 2.53502,-1.8805202 3.05379,-2.2656302 0.51877,-0.38512 1.31724,-0.97713 1.77438,-1.3156 0.45713,-0.33847 0.84773,-0.63114 0.86798,-0.65038 0.0367,-0.0348 0.0367,-0.0351 0,-0.0714 -0.0434,-0.0429 -0.38946,-0.0979 -0.83786,-0.13327 -0.35111,-0.0277 -1.18485,-0.0121 -1.51499,0.0283 -1.90943,0.23345 -3.58772,1.08678 -4.91502,2.49903 -0.68629,0.73022 -1.28203,1.6844602 -1.63664,2.6215602 -0.77177,2.0395 -0.70459,4.2868 0.18729,6.2648 0.10992,0.24377 0.22352,0.46694 0.23769,0.46694 0.003,0 1.35323,-0.74235 3.00064,-1.64967 1.64741,-0.90732 3.07514,-1.6936 3.17273,-1.74728 0.12981,-0.0714 0.1649,-0.085 0.13074,-0.0508 -0.0257,0.0258 -1.4293,1.29063 -3.11916,2.81081 l -3.07246,2.76395 -2.82032,1.39563 c -4.25072,2.10347 -4.96996,2.45795 -4.94957,2.4394 z m 14.02689,-0.82853 c -1.28977,-0.0855 -2.5831,-0.43375 -3.71502,-1.00035 l -0.24097,-0.12063 0.15692,-0.0848 c 0.14976,-0.0809 1.51157,-0.82187 4.05121,-2.20427 1.03206,-0.56178 1.81604,-0.98842 3.28726,-1.78895 0.23114,-0.12576 0.89092,-0.48493 1.46619,-0.79814 2.1119,-1.14983 2.01156,-1.09607 1.97049,-1.05581 -0.0154,0.0151 -0.3432,0.26652 -0.72843,0.5587 -0.66194,0.50206 -2.0336,1.54552 -4.42709,3.36782 -0.58069,0.44211 -1.43137,1.08954 -1.8904,1.43872 -0.63576,0.48362 -0.82664,0.63784 -0.80117,0.64726 0.0415,0.0154 0.46124,0.0828 0.67489,0.10842 1.08401,0.13009 2.32518,-0.003 3.39932,-0.36558 0.6926,-0.23354 1.4164,-0.59841 2.00012,-1.00828 2.59026,-1.81876 3.88796,-4.95596 3.34068,-8.07609 -0.13912,-0.79319 -0.4523,-1.71837 -0.79508,-2.34881 -0.0696,-0.12803 -0.0892,-0.15139 -0.11549,-0.13767 -0.0174,0.009 -1.42266,0.76024 -3.12279,1.66923 -3.1495,1.68391 -3.24349,1.73369 -3.19297,1.69133 0.0316,-0.0265 3.03321,-2.64077 4.9847,-4.3414602 l 1.2247,-1.0673 3.72071,-1.86975 c 2.0464,-1.02836 3.72597,-1.86975 3.7324,-1.86975 0.006,0 -1.36112,1.16078 -3.03898,2.57952 -1.67787,1.41873 -3.05785,2.58622 -3.06663,2.59441 -0.009,0.008 0.0662,0.16311 0.16667,0.3442802 0.13707,0.24723 0.18969,0.32668 0.21095,0.31853 0.0156,-0.006 0.30199,-0.16508 0.63647,-0.3535602 0.33448,-0.18848 2.67156,-1.50445 5.1935,-2.92436 2.52195,-1.41992 4.59166,-2.58543 4.59936,-2.59003 0.008,-0.005 0.014,-0.004 0.014,8e-4 0,0.005 -2.21104,1.72599 -4.91342,3.82436 -4.2199,3.2767002 -4.91189,3.8206202 -4.90257,3.8535502 0.0388,0.13693 0.14619,0.72059 0.17733,0.9636 0.14399,1.12407 0.0578,2.31921 -0.24453,3.38926 -0.34197,1.21045 -0.92527,2.30908 -1.75524,3.30594 -0.2125,0.25523 -0.74544,0.79499 -1.00631,1.01919 -1.62616,1.3976 -3.56368,2.18343 -5.7527,2.33321 -0.31657,0.0217 -0.95159,0.0204 -1.29809,-0.003 z m -2.0919,-10.23837 c 0.0308,-0.0252 1.78715,-1.44161 3.90294,-3.1475902 l 3.84692,-3.10178 2.4833,-1.12149 c 1.36583,-0.61682 2.48557,-1.11923 2.48833,-1.11647 0.003,0.003 -0.74355,0.76968 -1.65846,1.70427 l -1.66347,1.69924 -4.65309,2.5271502 c -2.55919,1.38994 -4.6867,2.5441 -4.72779,2.56482 l -0.0747,0.0377 z"
           id="path2396"
           inkscape:export-filename="mine.svg"
           inkscape:export-xdpi="323.68784"
           inkscape:export-ydpi="323.68784" />
      </g>
    </g>
  </g>
</svg>
