<?xml version="1.0" encoding="UTF-8" standalone="no"?>
<!-- Generator: Adobe Illustrator 19.2.1, SVG Export Plug-In . SVG Version: 6.00 Build 0)  -->

<svg
   version="1.1"
   id="layer"
   x="0px"
   y="0px"
   viewBox="0 0 425104 425104"
   xml:space="preserve"
   sodipodi:docname="mines.svg"
   inkscape:export-filename="mines.svg"
   inkscape:export-xdpi="96"
   inkscape:export-ydpi="96"
   width="425104"
   height="425104"
   xmlns:inkscape="http://www.inkscape.org/namespaces/inkscape"
   xmlns:sodipodi="http://sodipodi.sourceforge.net/DTD/sodipodi-0.dtd"
   xmlns="http://www.w3.org/2000/svg"
   xmlns:svg="http://www.w3.org/2000/svg"><defs
   id="defs1548" /><sodipodi:namedview
   id="namedview1546"
   pagecolor="#ffffff"
   bordercolor="#000000"
   borderopacity="0.25"
   inkscape:showpageshadow="2"
   inkscape:pageopacity="0.0"
   inkscape:pagecheckerboard="0"
   inkscape:deskcolor="#d1d1d1"
   showgrid="false" />
<style
   type="text/css"
   id="style1497">
	.st0{fill:#055E9F;}
	.st1{fill:#989AA1;}
	.st2{fill:#1F1F1D;}
	.st3{fill:none;stroke:#1F1F1D;stroke-width:4.547298e-002;}
</style>








<g
   id="g1759"
   inkscape:export-filename="mines.svg"
   inkscape:export-xdpi="96"
   inkscape:export-ydpi="96"
   style="fill:#000000;fill-opacity:1;stroke:none"><path
     class="st0"
     d="m 338.93494,314.16506 99.7,-86.8 118.9,-59.7 -98,82.9 c 2,3.4 4.1,7 5.8,10.6 l 167.8,-94.5 -157.5,122.3 c 2.7,10.6 4.1,21.7 4.1,33.2 0,78.7 -67.2,142.6 -150.1,142.6 -26.7,0 -51.8,-6.5 -73.5,-18.2 l 175.1,-95.3 -126.8,96.5 c 8.1,1.7 16.6,2.6 25.1,2.6 70.2,0 127,-57.5 127,-128.3 0,-22.6 -5.8,-43.9 -15.9,-62.3 z"
     id="path1509"
     inkscape:export-filename="mines.svg"
     inkscape:export-xdpi="96"
     inkscape:export-ydpi="96"
     style="fill:#000000;fill-opacity:1;stroke:none" /><path
     class="st0"
     d="m 217.63494,382.96506 c -9.6,-18.1 -15.1,-38.8 -15.1,-60.8 0,-70.8 56.8,-128.3 127.1,-128.3 7.7,0 15.1,0.7 22.5,2 l 0.9,1.2 -126.1,93.6 176.2,-92.9 c -21.5,-11.2 -47.3,-18.2 -73.5,-18.2 -82.9,0 -150.1,63.8 -150.1,142.6 0,11.3 1.3,22.1 3.9,32.6 l -157.7,121.7 167.5,-94.8 c 2,4.3 4.3,8.4 6.8,12.4 l -104.4,83.9 123.9,-61.3 99.6,-89.6 -101.5,55.9"
     id="path1511"
     style="fill:#000000;fill-opacity:1;stroke:none" /><polygon
     class="st0"
     points="187.9,328 341.1,243.5 214.4,346.6 132.7,385 "
     id="polygon1513"
     transform="translate(36.13494,94.26506)"
     style="fill:#000000;fill-opacity:1;stroke:none" /><polygon
     class="st0"
     points="372.6,108.3 452.1,72.4 398.6,127 248.2,208.6 "
     id="polygon1515"
     transform="translate(36.13494,94.26506)"
     style="fill:#000000;fill-opacity:1;stroke:none" /></g>














</svg>
