<?xml version="1.0" encoding="UTF-8" standalone="no"?>
<!-- Created with Inkscape (http://www.inkscape.org/) -->

<svg
   width="143.01323mm"
   height="71.051773mm"
   viewBox="0 0 143.01323 71.051773"
   version="1.1"
   id="svg5"
   xml:space="preserve"
   xmlns:inkscape="http://www.inkscape.org/namespaces/inkscape"
   xmlns:sodipodi="http://sodipodi.sourceforge.net/DTD/sodipodi-0.dtd"
   xmlns="http://www.w3.org/2000/svg"
   xmlns:svg="http://www.w3.org/2000/svg"><sodipodi:namedview
     id="namedview7"
     pagecolor="#ffffff"
     bordercolor="#000000"
     borderopacity="0.25"
     inkscape:showpageshadow="2"
     inkscape:pageopacity="0.0"
     inkscape:pagecheckerboard="0"
     inkscape:deskcolor="#d1d1d1"
     inkscape:document-units="mm"
     showgrid="false" /><defs
     id="defs2" /><g
     inkscape:label="Calque 1"
     inkscape:groupmode="layer"
     id="layer1"
     transform="translate(184.41692,-158.16679)"><path
       style="fill:#6f3d7f;stroke:none;stroke-width:0.352778"
       d="m -158.66414,164.1192 c 7.35566,-2.32283 14.69989,-2.16528 21.87222,0.82314 2.29129,0.95469 7.91386,6.1359 10.23055,4.35095 3.56341,-2.74557 -6.04802,-7.08103 -7.76111,-7.93752 -7.3032,-3.65156 -18.89012,-4.41056 -26.45833,-0.99953 -4.69724,2.11708 0.71318,10.80095 1.99909,13.99352 0.68107,1.69097 1.19838,3.95735 3.64535,3.11619 1.605,-0.55171 0.84861,-2.38397 0.41159,-3.46897 -1.32101,-3.27978 -2.72433,-6.5798 -3.93936,-9.87778 m 47.97777,-0.94075 c -0.88794,0.17265 -1.99143,0.0723 -2.82222,0.41159 -2.18581,0.89273 -2.49802,3.66137 -1.29363,5.46805 2.68993,4.03458 7.38752,7.50496 10.81863,10.93611 1.43052,1.43037 2.82328,3.20492 4.586109,4.23333 2.81341,1.64109 7.76253,0.70556 10.93611,0.70556 h 20.10834 c 2.98097,0 6.62411,0.56737 9.525,-0.11758 2.38231,-0.5625 3.98956,-2.81372 5.64444,-4.46853 3.57929,-3.57942 8.28569,-7.13341 11.17142,-11.28889 2.523466,-6.40954 -3.345721,-6.01898 -7.64364,-5.99722 h -12.7 -32.45556 c -5.03978,0 -10.934339,-0.8431 -15.874999,0.11758 m 20.108339,43.97964 c -1.37866,0 -3.69147,0.44732 -4.93889,-0.17639 -2.83492,-1.41746 -5.518859,-5.34247 -7.761109,-7.58472 l -16.58056,-16.58056 c -2.09585,-2.09571 -5.21511,-6.70217 -8.11389,-7.46714 -3.88549,-1.02535 -8.21513,5.41835 -10.58333,7.81992 -1.01953,1.03385 -2.22603,2.3042 -2.11667,3.88056 0.16016,2.30635 4.00509,5.47518 5.64445,6.93808 4.19841,3.74614 10.09368,8.34213 13.05278,13.17025 h -26.45834 c -3.56245,0 -8.59232,-0.92181 -11.99444,0.11748 -2.74991,0.84031 -8.74491,6.71265 -9.525,9.40752 -5.79597,-5.79614 -9.43229,-12.60334 -10.23056,-20.81389 -0.28596,-2.94128 0.11162,-6.32608 0.82314,-9.17222 0.38022,-1.52086 1.54372,-3.48072 0.11761,-4.82131 -1.45877,-1.37121 -3.07383,0.33892 -3.52778,1.64631 -1.07752,3.10324 -1.6463,6.96514 -1.6463,10.23055 0,6.8379 2.22662,13.61758 5.76202,19.40278 1.20887,1.97803 3.89474,3.91689 4.70373,5.99722 0.86861,2.23344 -5.29047,4.21005 -2.93984,7.76112 1.5669,2.36713 4.4842,1.76388 6.93798,1.76388 h 18.69722 37.74722 c 4.2605,0 11.64096,1.42628 15.522219,-0.35277 4.47076,-2.04929 8.86284,-8.51006 12.34723,-11.99445 1.43721,-1.43721 3.63149,-3.00708 4.40972,-4.93889 1.54622,-3.83857 -4.23192,-7.58331 -6.52639,-9.87777 l -25.399999,-25.4 c -2.25284,-2.25291 -7.58331,-10.13693 -11.22998,-6.93798 -3.40712,2.98866 4.45947,8.63417 6.29109,10.46575 l 27.516669,27.51667 m -31.397219,-37.39444 -1.41112,0.70555 1.41112,-0.70555 m -42.33334,15.34583 c -1.90136,1.12211 0.8618,3.21268 1.76389,3.93936 3.33463,2.68623 9.91605,12.13249 14.81667,8.81955 2.07186,-1.40052 2.49449,-4.73865 0.70555,-6.5853 -2.44831,-2.5273 -8.06139,-3.34493 -11.28889,-4.64492 -1.38892,-0.55943 -4.52444,-2.39786 -5.99722,-1.52869"
       id="path466"
       sodipodi:nodetypes="csccssssccccccsssccccsccsscsscccsccsscssccsscsssccccccccccscssc" /></g></svg>
