<?xml version="1.0" encoding="UTF-8" standalone="no"?>
<!-- Created with Inkscape (http://www.inkscape.org/) -->

<svg
   width="131.93266mm"
   height="85.969971mm"
   viewBox="0 0 131.93266 85.969971"
   version="1.1"
   id="svg5"
   xml:space="preserve"
   xmlns:inkscape="http://www.inkscape.org/namespaces/inkscape"
   xmlns:sodipodi="http://sodipodi.sourceforge.net/DTD/sodipodi-0.dtd"
   xmlns="http://www.w3.org/2000/svg"
   xmlns:svg="http://www.w3.org/2000/svg"><sodipodi:namedview
     id="namedview7"
     pagecolor="#ffffff"
     bordercolor="#000000"
     borderopacity="0.25"
     inkscape:showpageshadow="2"
     inkscape:pageopacity="0.0"
     inkscape:pagecheckerboard="0"
     inkscape:deskcolor="#d1d1d1"
     inkscape:document-units="mm"
     showgrid="false" /><defs
     id="defs2" /><g
     inkscape:label="Calque 1"
     inkscape:groupmode="layer"
     id="layer1"
     transform="translate(-245.22866,-202.27093)"><path
       style="fill:#000000;stroke-width:0.264583"
       d="m 278.79696,287.83711 c 0.29885,-0.46081 15.2336,-25.58933 19.02226,-32.00598 l 0.73697,-1.24817 -7.1963,-6.49588 -7.1963,-6.49587 -0.1853,0.60029 c -0.10192,0.33016 -0.68448,2.53506 -1.29458,4.89977 l -1.10927,4.29948 h -6.0671 -6.0671 l 0.19025,-0.59531 c 0.29871,-0.93472 0.89713,-3.22018 0.9006,-3.43958 0.002,-0.10914 -1.36149,-0.19844 -3.02937,-0.19844 h -3.03251 l -0.26468,0.99219 c -0.14557,0.5457 -0.56658,2.12328 -0.93557,3.50572 -0.36899,1.38245 -0.6712,2.66237 -0.67156,2.84428 l -6.7e-4,0.33073 h 6.18883 6.18882 l 1.97398,2.45423 c 1.08568,1.34982 2.12064,2.68927 2.2999,2.97656 l 0.32592,0.52233 -1.76786,8.46667 c -0.97233,4.65666 -1.78593,8.47755 -1.808,8.49086 -0.0221,0.0133 -1.7334,1.35276 -3.80295,2.97656 l -3.76283,2.95237 h -9.21811 -9.21811 l -2.38383,-2.97819 -2.38383,-2.97819 1.18532,-5.35619 1.18532,-5.35618 h 6.04351 c 3.32393,0 6.04336,0.0893 6.04319,0.19844 -1.7e-4,0.10914 -0.16397,1.05659 -0.364,2.10544 -0.44797,2.34898 -0.64445,2.19404 2.78227,2.19404 h 2.85893 l 0.3977,-1.38907 c 1.04839,-3.66168 1.67078,-6.25862 1.53299,-6.39641 -0.0836,-0.0836 -2.96186,-0.15202 -6.3961,-0.15202 h -6.24409 l -2.14196,-2.85837 -2.14195,-2.85836 1.77625,-8.3481 c 0.97693,-4.59145 1.85594,-8.47703 1.95333,-8.63463 0.0974,-0.15759 1.77211,-1.54344 3.72158,-3.07967 l 3.5445,-2.79314 24.64688,-0.0675 24.64687,-0.0675 9.69045,-16.33022 c 5.32975,-8.98162 9.72521,-16.29546 9.76771,-16.25297 0.0596,0.0596 1.93562,31.55841 1.93562,32.50006 0,0.11848 7.91765,0.21542 17.59479,0.21542 11.18327,0 17.59479,0.0935 17.59479,0.25649 0,0.14107 -1.84547,8.29095 -4.10104,18.11085 -2.25557,9.8199 -4.10104,17.91979 -4.10104,17.99976 0,0.08 4.16719,0.14541 9.26042,0.14541 6.37851,0 9.26041,0.0878 9.26041,0.282 0,0.28954 -2.29302,10.59382 -2.5426,11.42581 l -0.13889,0.46302 -12.21915,-0.008 -12.21915,-0.008 -2.24896,-2.90208 c -1.23693,-1.59614 -2.28276,-3.00345 -2.32408,-3.12734 -0.0413,-0.1239 1.60331,-7.8157 3.65474,-17.09288 2.05143,-9.27719 3.69258,-16.90328 3.647,-16.94689 -0.0456,-0.0436 -4.36912,2.53271 -9.60787,5.72511 -5.23875,3.19241 -9.70055,5.90923 -9.91512,6.03738 l -0.39013,0.23301 0.87426,15.52349 c 0.48085,8.53792 0.82131,15.57646 0.75658,15.64118 -0.0647,0.0647 -4.86649,-4.17331 -10.67059,-9.41786 -6.9149,-6.24826 -10.70527,-9.49963 -10.99485,-9.43137 -0.24307,0.0573 -8.00741,4.70172 -17.25409,10.32092 -17.58158,10.68433 -17.38922,10.57397 -16.77145,9.62143 z m 50.31078,-22.65751 c -0.36588,-6.30448 -0.60958,-11.60773 -0.54155,-11.78501 0.068,-0.17727 5.20915,-3.40933 11.42472,-7.18235 l 11.30104,-6.86003 -11.78516,-0.0689 -11.78516,-0.0688 -0.14861,-1.38636 c -0.0817,-0.76249 -0.39487,-5.84833 -0.69585,-11.30186 -0.30098,-5.45354 -0.58404,-9.95232 -0.62901,-9.99729 -0.045,-0.045 -3.10378,5.03536 -6.79733,11.28964 l -6.71556,11.37142 -12.23378,0.0811 -12.23378,0.0811 7.80201,7.13555 c 4.29111,3.92455 7.80201,7.23145 7.80201,7.34867 0,0.11722 -2.86873,5.04085 -6.37496,10.94141 -3.50623,5.90055 -6.3181,10.78513 -6.2486,10.85463 0.0695,0.0695 5.03621,-2.86094 11.03713,-6.51208 6.00092,-3.65115 10.99928,-6.66342 11.10748,-6.69394 0.10819,-0.0305 3.80335,3.19021 8.21145,7.15717 4.40811,3.96697 8.04939,7.17802 8.09174,7.13567 0.0423,-0.0423 -0.22236,-5.23521 -0.58823,-11.53969 z"
       id="path640" /></g></svg>
