<svg width="355" height="171" viewBox="0 0 355 171" fill="none" xmlns="http://www.w3.org/2000/svg">
<path d="M283.139 70.3571L291.072 59.7847C292.568 57.7936 293.557 55.3036 297.091 55.7074C300.148 56.0551 305.36 61.8483 302.827 65.131L287.065 85.6082C284.271 89.2378 279.128 97.5439 284.487 100.436C289.34 103.058 296.909 95.2072 300.033 91.4461L310.868 78.4042C311.155 78.0607 312.18 77.6495 312.611 77.6216C313.041 77.5938 313.233 79.184 312.939 79.8085C306.017 94.3973 292.679 118.297 276.87 125.106C272.515 126.983 266.975 126.696 264.077 122.548C259.752 116.365 264.49 105.868 266.641 99.436L255.886 112.278C250.612 118.573 245.04 124.531 237.773 128.433C233.983 130.471 228.728 128.828 227.492 124.626C226.619 121.645 226.756 118.529 226.562 115.232L218.958 123.285C213.478 129.093 202.493 137.323 194.743 132.259C192.089 130.524 189.583 127.11 189.966 123.451C191.01 113.414 197.984 103.087 204.346 95.5012L212.64 85.6091C213.057 85.1114 213.239 83.6904 212.962 83.1921C210.967 79.5632 197.435 86.3971 191.136 99.1728C185.344 110.925 178.275 121.537 169.065 130.688C163.727 135.99 154.147 142.45 147.164 137.169C144.456 135.121 143.871 131.745 143.83 128.164C143.778 122.846 146.609 118.505 147.533 113.023L135.224 127.678C131.014 132.691 126.144 136.968 120.767 140.625C118.058 142.468 114.438 142.742 111.977 141.26C104.409 136.692 109.651 123.051 112.705 116.488C118.002 105.102 125.145 95.0493 132.656 85.0389C134.991 81.9244 137.161 79.2228 139.828 76.3522C141.31 74.7574 143.152 72.0279 145.884 72.4937C149.459 73.1032 154.401 79.0469 152.921 82.8195C150.893 87.9832 146.139 91.7441 142.8 95.9299L130.019 111.974C128.478 113.906 127.213 116.726 127.715 119.339C127.94 120.525 131.401 120.319 132.37 119.57C136.674 116.234 140.348 112.903 143.945 108.746C154.718 96.297 164.576 83.5784 174.348 70.2961C175.44 68.8139 177.806 68.1989 179.574 68.872C183.075 70.2028 186.091 75.0767 184.109 78.6813C180.066 86.033 158.163 106.034 164.756 112.517C171.935 119.586 187.635 97.1414 191.109 91.6925C195.394 84.9705 190.379 76.3153 190.97 68.8375C191.983 67.5614 194.888 67.3907 196.47 67.6446C203.289 68.7405 209.543 69.3186 216.406 69.3525C218.585 69.3629 221.177 70.0096 223.113 70.8746C230.686 74.27 224.252 84.462 221.316 89.0052L213.24 101.485C212.068 103.294 211.154 107.17 212.865 108.608C215.362 110.71 219.256 109.158 221.709 107.597C229.285 102.789 234.337 95.9199 239.403 88.7114L249.408 74.4801C251.36 71.7067 260.33 59.4926 263.776 59.3774C268.067 59.7687 273.689 66.6953 270.972 71.0361C266.504 78.1731 260.185 83.818 255.119 90.4469L249.146 98.2641C247.491 100.432 245.478 103.575 246.342 106.417C246.749 107.748 250.313 107.148 251.366 106.295C262.186 97.5406 274.421 81.9767 283.138 70.3508L283.139 70.3571Z" fill="#142F8A"/>
<path d="M95.9158 106.972C86.3676 106.901 72.3401 112.992 69.3712 100.91C68.5005 97.3688 67.1457 91.7276 70.2877 88.716C72.6166 86.481 77.5017 86.8328 80.7677 86.7054C94.0365 86.2053 106.578 87.3259 119.631 89.1103C120.763 89.2669 122.165 91.2601 122.22 92.2285C122.53 97.6909 107.286 102.03 103.007 104.663C93.6799 119.973 86.3218 132.667 72.0503 143.989C65.5622 149.136 58.3055 152.61 50.0044 152.994C39.5427 153.481 30.4062 147.906 25.9416 138.516C18.9379 123.779 23.8307 104.839 30.3284 90.5067C37.3028 75.1161 46.8609 61.7488 58.7391 49.7394C66.1146 42.2786 73.5741 35.471 82.2442 29.6012C91.573 23.29 107.934 14.0137 118.59 20.7345C122.88 23.4441 124.657 28.2304 125.554 33.0045C126.735 39.2697 127.567 45.4903 127.187 51.9833C126.522 63.386 116.564 71.4026 105.224 71.7812C96.0927 72.0842 86.8343 68.8345 80.4426 61.1003C91.6493 59.972 110.5 57.5759 115.686 46.7432C115.675 45.8272 113.988 44.432 113.104 44.0955C88.0189 34.6005 52.3825 63.7888 42.92 86.1384C40.3068 92.3021 38.9743 98.9373 40.1414 105.484C41.8489 115.055 48.7138 122.514 58.1872 124.117C72.105 126.469 86.412 117.455 95.9214 106.965L95.9158 106.972Z" fill="#142F8A"/>
</svg>
