<svg width="355" height="497" viewBox="0 0 355 497" fill="none" xmlns="http://www.w3.org/2000/svg">
<path d="M35.9669 181.22C36.093 197.839 42.241 217.779 50.1571 232.548C60.4505 251.755 73.6638 267.054 91.5652 279.47C120.033 299.215 156.834 305.852 189.66 293.551C206.032 287.417 219.637 278.245 231.103 265.141C242.174 252.488 251.421 232.974 252.527 216.354L252.968 209.703C253.091 207.888 253.059 206.254 252.972 204.438L252.706 198.956C251.89 182.068 244.331 164.799 232.697 152.265C221.062 139.73 204.999 131.218 188.095 129.968C188.151 132.356 187.931 134.318 187.885 136.427L187.658 147.226L187.423 151.73L190.942 152.174C195.441 152.739 199.733 153.528 203.984 155.187C216.563 160.089 226.759 169.244 233.316 181.041C237.742 188.999 240.066 197.619 240.784 206.728C243.252 237.939 224.462 264.949 197.328 278.831C193.323 280.881 189.583 282.63 185.312 283.999C177.809 286.404 170.422 288.213 162.481 288.695C157.527 288.995 152.632 289.107 147.636 288.705C135.564 287.735 123.965 284.735 112.947 279.788C102.618 275.151 93.0042 269.502 84.6714 261.999L80.6031 258.336C77.9702 255.965 75.6595 253.654 73.2297 250.98C62.019 238.651 53.2451 224.388 47.9409 208.558C44.3137 197.734 42.2235 186.886 41.7893 175.514C41.1066 157.701 45.0279 138.009 52.3558 121.735C57.6495 109.976 65.2786 98.6736 73.9194 89.1732C90.7739 70.6473 111.347 57.7079 135.333 50.3548C138.439 49.4016 141.257 48.4729 144.433 47.8409C137.623 50.7004 130.915 53.2667 124.399 56.8804C110.016 64.8584 99.2012 73.3952 88.1201 85.5141C76.8499 97.8426 68.6467 111.721 62.8873 127.395C58.8119 138.48 56.9213 149.922 56.4101 161.674C56.2841 164.558 56.2246 167.306 56.4101 170.138L56.8198 176.426C58.5353 202.727 70.6598 228.18 89.7586 246.451C108.896 264.75 135.053 278.241 162.159 276.527C169.872 276.038 177.336 274.572 184.321 271.471C177.886 273.213 171.843 274.655 165.24 275.137C140.97 276.904 117.155 266.548 99.5058 250.32C97.1775 248.179 95.0873 246.207 93.0112 243.843C77.7531 226.452 67.6943 204.323 66.0558 181.118L65.8072 177.588C64.8759 164.429 67.6663 147.118 72.2388 134.605C79.6368 114.368 91.1485 98.286 107.166 83.9814C123.566 69.3345 143.274 59.3 164.718 54.6214C164.939 54.5725 165.604 54.3176 165.583 54.1431L165.457 53.1026L165.205 40.39L164.956 26.9478C164.935 25.7397 164.526 24.4514 164.834 23.2189C169.816 23.4807 170.071 22.9186 174.861 23.2293C176.142 23.3131 177.364 23.2538 178.684 23.2189L181.45 23.1456L190.886 23.1386C190.938 25.6943 190.819 27.88 190.763 30.3101L190.424 44.8906L190.182 51.6746C192.566 51.6955 194.615 51.6466 196.869 51.7898L200.763 52.0377C228.688 53.8079 254.939 64.9841 275.75 83.6113C290.728 97.0151 302.373 113.834 310.054 132.398C315.345 145.184 319.325 158.535 320.033 172.327L320.467 180.752C320.565 182.679 320.544 184.446 320.481 186.362L320.201 195.109C319.749 193.363 319.686 191.746 319.504 189.84C318.107 175.148 314.056 161.255 307.81 147.914C304.218 140.247 300.157 133.138 295.175 126.239C275.47 98.9599 243.224 79.4738 209.302 76.9739C203.963 76.5794 194.961 76.6422 189.552 77.571L189.464 87.8499C189.461 88.3807 189.237 89.5782 189.293 89.7144L196.817 89.1837C200.031 88.9568 203.035 89.0336 206.322 89.271C217.974 90.1159 229.209 92.6577 239.891 97.3538C270.141 110.646 292.552 135.666 303.217 166.8C307.527 179.383 310.657 197.211 309.736 210.401L309.372 215.6C307.324 244.953 291.302 275.546 269.483 295.294L265.933 298.509C244.856 317.587 210.576 330.697 181.814 329.919C193.361 328.002 204.694 324.957 215.495 319.989C239.968 308.732 260.202 290.957 273.257 267.425C279.745 255.735 285.602 239.73 286.432 226.466L286.891 219.12C287.027 216.955 287.027 214.954 286.901 212.793L286.572 207.036C285.945 196.058 283.064 185.598 278.782 175.48L277.007 171.29C276.321 169.666 275.53 168.224 274.665 166.639C268.216 154.81 261.584 146.367 251.606 137.335C246.134 132.38 240.266 128.564 233.729 125.104C220.211 117.954 203.914 114.141 188.47 115.96L188.561 120.398C220.898 119.895 247.419 137.482 262.894 165.117C265.754 170.225 267.838 175.169 269.721 180.699C272.778 189.665 274.584 198.611 275.057 208.09C275.193 210.827 275.32 213.558 275.127 216.323L274.833 220.548C274.077 231.396 271.447 241.724 267.4 251.849C255.601 281.377 229.489 302.954 199.67 312.982C187.626 317.032 177.2 319.224 164.568 319.78C161.2 319.926 157.933 320.01 154.575 319.825L149.929 319.567C120.695 317.933 91.4426 302.242 71.4966 281.045C58.1362 266.845 47.3772 249.077 41.3797 230.471C36.9578 216.725 34.3774 200.901 35.1056 186.565L35.3647 181.436L35.4137 180.703C35.4243 180.553 35.9634 181.034 35.9669 181.223V181.22ZM168.153 165.012C161.966 166.978 156.781 170.679 152.174 175.26C148.364 179.589 145.742 184.589 143.97 190.077C141.891 196.526 141.975 202.689 143.379 209.525C138.656 200.468 138.978 187.571 143.099 178.423C148.032 167.48 156.82 159.056 168.135 154.932L167.932 153.127L167.673 140.118C167.617 137.206 167.463 134.538 167.456 131.546C152.009 136.123 139.671 143.979 131.538 158.183C125.743 168.301 123.72 179.896 124.627 191.519C125.173 198.509 127.046 204.979 129.801 211.41C132.809 218.425 137.336 224.5 142.994 229.587C157.145 242.3 177.928 246.842 194.804 237.321C197.531 235.781 199.768 233.822 202.212 232.188C194.685 241.395 183.954 246.479 172.26 247.244C163.069 247.844 154.036 245.463 145.693 241.594C132.235 235.355 120.66 223.596 114.505 210.255C109.113 198.565 106.683 186.331 107.376 173.395C108.017 161.461 111.098 149.901 116.392 139.227C126.696 118.453 145.133 103.611 166.455 95.4021L166.343 89.0021L166.066 82.6755C140.907 91.1808 120.982 107.57 108.441 130.935C100.266 146.165 96.0186 164.858 97.3386 182.082C98.3924 195.814 102.114 209.089 108.801 221.113C117.215 236.242 128.282 247.348 144.103 254.653C149.751 257.257 159.61 259.652 165.769 259.858C175.603 260.183 185.378 258.504 194.079 254.07C203.689 249.171 211.063 241.853 216.042 232.37C223.741 217.709 225.089 200.419 216.759 185.72C214.357 181.485 211.693 177.658 208.073 174.47C202.044 169.16 195.084 165.221 187.122 163.951L186.887 170.815L186.572 183.06L186.208 193.876L185.862 205.032L185.526 215.537C185.466 217.405 185.343 219.27 185.371 221.305L177.788 228.92L173.944 224.895L169.931 220.565L169.704 217.007L169.417 206.351L169.056 193.185L168.741 182.854L168.45 169.932L168.142 165.015L168.153 165.012ZM96.9044 224.381C89.7446 210.848 85.1406 196.526 84.4053 181.034C84.2058 176.82 84.0202 172.784 84.3458 168.573L84.6189 165.036C85.1896 157.669 87.2693 147.457 89.7551 140.565C95.0418 125.904 101.624 114.012 112.057 102.427C114.676 99.5185 117.393 96.9208 120.173 94.1451C120.996 93.3211 122.344 92.9266 122.571 91.7011C117.425 95.6185 112.197 100.873 108.049 105.398C103.434 110.436 96.8904 119.717 93.8164 125.764C91.0015 131.298 88.4457 136.661 86.576 142.618C84.2653 149.995 82.8823 157.401 82.3362 165.159C81.4574 177.662 82.8508 191.984 87.0032 203.844C89.524 211.051 92.2514 217.974 96.8974 224.378L96.9044 224.381ZM268.503 135.502C269.241 136.263 269.609 137.663 270.856 137.649C261.108 125.558 249.499 116.051 235.672 109.665C220.859 102.821 205.461 99.7944 189.307 101.704C188.89 101.753 188.729 103.296 189.083 103.296C192.293 103.007 195.367 102.895 198.441 103.111C207.191 103.722 215.737 104.738 224.091 107.545C228.334 108.973 232.357 110.168 236.39 112.053C248.907 117.894 258.913 125.638 268.503 135.502ZM166.14 124.092C167.425 123.613 167.53 121.986 166.78 120.904C158.581 125.125 150.906 130.09 144.748 136.843C148.273 134.315 151.333 131.431 155.108 129.343C158.7 127.356 162.148 125.579 166.14 124.092ZM263.157 220.736L263.44 215.988C263.577 213.729 263.79 211.592 263.377 209.368L263.22 204.588C261.959 195.046 260.338 185.486 255.899 176.887C261.809 193.771 263.195 211.082 259.848 228.512C258.321 236.455 256.252 243.846 252.79 251.168C247.671 261.992 246.312 263.954 239.062 273.444C236.779 276.429 233.838 278.639 232.304 280.944C249.183 266.782 261.872 242.115 263.157 220.736Z" fill="#142F8A"/>
<path d="M283.139 396.349L291.072 385.777C292.568 383.786 293.557 381.296 297.091 381.7C300.148 382.047 305.36 387.84 302.827 391.123L287.065 411.6C284.271 415.23 279.128 423.536 284.487 426.428C289.34 429.051 296.909 421.199 300.033 417.438L310.868 404.396C311.155 404.053 312.18 403.642 312.611 403.614C313.041 403.586 313.233 405.176 312.939 405.801C306.017 420.389 292.679 444.289 276.87 451.098C272.515 452.975 266.975 452.688 264.077 448.54C259.752 442.357 264.49 431.86 266.641 425.428L255.886 438.27C250.612 444.565 245.04 450.524 237.773 454.425C233.983 456.463 228.728 454.821 227.492 450.618C226.619 447.638 226.756 444.521 226.562 441.224L218.958 449.277C213.478 455.085 202.493 463.315 194.743 458.252C192.089 456.516 189.583 453.102 189.966 449.443C191.01 439.407 197.984 429.079 204.346 421.493L212.64 411.601C213.057 411.104 213.239 409.683 212.962 409.184C210.967 405.555 197.435 412.389 191.136 425.165C185.344 436.917 178.275 447.529 169.065 456.68C163.727 461.983 154.147 468.442 147.164 463.161C144.456 461.113 143.871 457.738 143.83 454.156C143.778 448.838 146.609 444.497 147.533 439.015L135.224 453.67C131.014 458.683 126.144 462.96 120.767 466.617C118.058 468.46 114.438 468.734 111.977 467.252C104.409 462.684 109.651 449.043 112.705 442.481C118.002 431.094 125.145 421.041 132.656 411.031C134.991 407.917 137.161 405.215 139.828 402.344C141.31 400.75 143.152 398.02 145.884 398.486C149.459 399.095 154.401 405.039 152.921 408.812C150.893 413.975 146.139 417.736 142.8 421.922L130.019 437.966C128.478 439.898 127.213 442.718 127.715 445.331C127.94 446.517 131.401 446.311 132.37 445.562C136.674 442.226 140.348 438.895 143.945 434.738C154.718 422.289 164.576 409.571 174.348 396.288C175.44 394.806 177.806 394.191 179.574 394.864C183.075 396.195 186.091 401.069 184.109 404.673C180.066 412.025 158.163 432.027 164.756 438.51C171.935 445.578 187.635 423.134 191.109 417.685C195.394 410.963 190.379 402.307 190.97 394.83C191.983 393.554 194.888 393.383 196.47 393.637C203.289 394.733 209.543 395.311 216.406 395.345C218.585 395.355 221.177 396.002 223.113 396.867C230.686 400.262 224.252 410.454 221.316 414.997L213.24 427.477C212.068 429.286 211.154 433.163 212.865 434.6C215.362 436.703 219.256 435.15 221.709 433.589C229.285 428.782 234.337 421.912 239.403 414.704L249.408 400.472C251.36 397.699 260.33 385.485 263.776 385.37C268.067 385.761 273.689 392.687 270.972 397.028C266.504 404.165 260.185 409.81 255.119 416.439L249.146 424.256C247.491 426.424 245.478 429.567 246.342 432.409C246.749 433.74 250.313 433.141 251.366 432.287C262.186 423.533 274.421 407.969 283.138 396.343L283.139 396.349Z" fill="#142F8A"/>
<path d="M95.9158 432.965C86.3676 432.893 72.3401 438.985 69.3712 426.902C68.5005 423.361 67.1457 417.72 70.2877 414.708C72.6166 412.473 77.5017 412.825 80.7677 412.698C94.0365 412.198 106.578 413.318 119.631 415.102C120.763 415.259 122.165 417.252 122.22 418.221C122.53 423.683 107.286 428.023 103.007 430.655C93.6799 445.965 86.3218 458.659 72.0503 469.981C65.5622 475.129 58.3055 478.602 50.0044 478.987C39.5427 479.473 30.4062 473.898 25.9416 464.508C18.9379 449.771 23.8307 430.831 30.3284 416.499C37.3028 401.108 46.8609 387.741 58.7391 375.732C66.1146 368.271 73.5741 361.463 82.2442 355.593C91.573 349.282 107.934 340.006 118.59 346.727C122.88 349.436 124.657 354.223 125.554 358.997C126.735 365.262 127.567 371.482 127.187 377.976C126.522 389.378 116.564 397.395 105.224 397.773C96.0927 398.076 86.8343 394.827 80.4426 387.092C91.6493 385.964 110.5 383.568 115.686 372.735C115.675 371.819 113.988 370.424 113.104 370.088C88.0189 360.593 52.3825 389.781 42.92 412.131C40.3068 418.294 38.9743 424.93 40.1414 431.477C41.8489 441.047 48.7138 448.507 58.1872 450.109C72.105 452.461 86.412 443.447 95.9214 432.958L95.9158 432.965Z" fill="#142F8A"/>
</svg>
