<svg width="451" height="619" viewBox="0 0 451 619" fill="none" xmlns="http://www.w3.org/2000/svg">
<path d="M21.3856 240.722C21.5646 264.325 30.296 292.644 41.5385 313.619C56.1571 340.896 74.9227 362.625 100.346 380.258C140.776 408.299 193.041 417.725 239.661 400.256C262.912 391.544 282.234 378.517 298.519 359.908C314.241 341.938 327.373 314.224 328.945 290.621L329.571 281.175C329.745 278.596 329.7 276.275 329.576 273.697L329.198 265.912C328.04 241.927 317.304 217.402 300.781 199.6C284.258 181.799 261.445 169.71 237.439 167.934C237.518 171.326 237.205 174.113 237.14 177.108L236.817 192.445L236.484 198.841L241.481 199.471C247.871 200.274 253.967 201.395 260.003 203.75C277.869 210.712 292.348 223.714 301.661 240.469C307.946 251.77 311.248 264.013 312.267 276.95C315.773 321.275 289.086 359.635 250.551 379.35C244.862 382.261 239.552 384.745 233.486 386.689C222.83 390.106 212.338 392.674 201.061 393.358C194.025 393.785 187.074 393.944 179.978 393.373C162.834 391.995 146.36 387.735 130.712 380.709C116.044 374.124 102.39 366.101 90.5558 355.445L84.7779 350.243C81.0387 346.876 77.757 343.594 74.3062 339.795C58.3847 322.286 45.9241 302.03 38.391 279.548C33.2396 264.176 30.2711 248.77 29.6546 232.62C28.685 207.321 34.254 179.354 44.6611 156.242C52.1793 139.541 63.014 123.49 75.2857 109.998C99.2226 83.6872 128.44 65.3106 162.505 54.8677C166.916 53.514 170.919 52.195 175.429 51.2975C165.757 55.3586 156.23 59.0032 146.977 64.1354C126.551 75.4658 111.191 87.5897 95.4535 104.801C79.4476 122.31 67.7974 142.021 59.6179 164.28C53.8301 180.023 51.145 196.273 50.4191 212.964C50.2401 217.059 50.1555 220.962 50.4191 224.983L51.0008 233.914C53.4373 271.267 70.6565 307.416 97.7806 333.364C124.959 359.352 162.108 378.512 200.604 376.078C211.558 375.383 222.159 373.301 232.078 368.898C222.939 371.372 214.357 373.42 204.979 374.104C170.511 376.613 136.689 361.906 111.624 338.858C108.317 335.819 105.348 333.017 102.4 329.66C80.7304 304.961 66.4449 273.533 64.1179 240.578L63.7648 235.565C62.4422 216.876 66.4051 192.291 72.899 174.519C83.4055 145.779 99.7546 122.94 122.503 102.624C145.793 81.8228 173.783 67.5717 204.238 60.9271C204.552 60.8577 205.496 60.4957 205.466 60.2478L205.287 58.7701L204.929 40.7158L204.576 21.6251C204.547 19.9094 203.965 18.0796 204.402 16.3293C211.478 16.7012 211.841 15.9028 218.643 16.3441C220.463 16.4631 222.198 16.3788 224.073 16.3293L228.001 16.2251L241.402 16.2152C241.476 19.8449 241.307 22.949 241.228 26.4002L240.745 47.1075L240.402 56.7421C243.788 56.7718 246.697 56.7024 249.899 56.9057L255.429 57.2578C295.088 59.7718 332.37 75.6443 361.926 102.099C383.198 121.135 399.736 145.021 410.645 171.386C418.158 189.544 423.812 208.506 424.816 228.092L425.433 240.058C425.572 242.795 425.542 245.304 425.453 248.026L425.055 260.447C424.413 257.968 424.324 255.672 424.065 252.965C422.081 232.099 416.328 212.369 407.458 193.422C402.356 182.533 396.588 172.437 389.513 162.639C361.528 123.897 315.733 96.2227 267.556 92.6723C259.973 92.112 247.189 92.2012 239.507 93.5202L239.383 108.118C239.378 108.872 239.06 110.573 239.139 110.766L249.825 110.013C254.389 109.69 258.656 109.799 263.325 110.137C279.873 111.337 295.829 114.946 310.999 121.616C353.96 140.493 385.788 176.027 400.934 220.243C407.055 238.114 411.5 263.433 410.193 282.166L409.675 289.55C406.767 331.237 384.013 374.684 353.026 402.73L347.984 407.297C318.05 434.391 269.366 453.011 228.518 451.905C244.917 449.183 261.012 444.859 276.352 437.803C311.109 421.816 339.844 396.572 358.386 363.151C367.599 346.549 375.918 323.819 377.097 304.981L377.748 294.548C377.942 291.474 377.942 288.632 377.763 285.563L377.296 277.386C376.406 261.796 372.313 246.94 366.232 232.57L363.711 226.62C362.737 224.314 361.613 222.266 360.385 220.015C351.226 203.215 341.808 191.225 327.637 178.397C319.865 171.361 311.531 165.941 302.248 161.027C283.05 150.872 259.904 145.457 237.971 148.04L238.1 154.343C284.024 153.629 321.69 178.605 343.668 217.853C347.73 225.107 350.689 232.129 353.364 239.983C357.705 252.717 360.27 265.421 360.942 278.884C361.135 282.771 361.314 286.649 361.041 290.576L360.623 296.576C359.549 311.982 355.815 326.65 350.067 341.03C333.31 382.965 296.227 413.61 253.877 427.851C236.772 433.603 221.965 436.717 204.025 437.505C199.241 437.713 194.602 437.832 189.833 437.57L183.235 437.203C141.716 434.882 100.172 412.598 71.8449 382.494C52.8704 362.327 37.5904 337.093 29.0728 310.668C22.7928 291.146 19.1281 268.674 20.1624 248.314L20.5303 241.029L20.6 239.988C20.6149 239.775 21.3806 240.459 21.3856 240.727V240.722ZM209.116 217.704C200.33 220.496 192.966 225.752 186.422 232.258C181.013 238.406 177.288 245.507 174.772 253.302C171.819 262.461 171.938 271.213 173.932 280.922C167.224 268.059 167.682 249.742 173.534 236.75C180.54 221.21 193.021 209.245 209.091 203.389L208.803 200.825L208.435 182.349C208.355 178.214 208.137 174.425 208.127 170.176C186.189 176.676 168.666 187.833 157.115 208.005C148.886 222.375 146.012 238.843 147.3 255.35C148.076 265.277 150.736 274.465 154.649 283.599C158.92 293.561 165.35 302.189 173.385 309.414C193.483 327.468 222.999 333.919 246.966 320.397C250.839 318.21 254.016 315.429 257.487 313.108C246.797 326.184 231.556 333.404 214.949 334.49C201.896 335.343 189.068 331.961 177.219 326.467C158.105 317.606 141.666 300.905 132.925 281.958C125.268 265.356 121.817 247.981 122.801 229.61C123.711 212.661 128.087 196.243 135.605 181.085C150.239 151.581 176.423 130.502 206.705 118.844L206.545 109.755L206.153 100.77C170.421 112.849 142.124 136.125 124.313 169.308C112.703 190.937 106.671 217.486 108.546 241.947C110.042 261.449 115.328 280.302 124.825 297.379C136.774 318.865 152.491 334.638 174.961 345.012C182.982 348.711 196.984 352.113 205.73 352.405C219.697 352.866 233.58 350.481 245.936 344.184C259.585 337.227 270.057 326.834 277.128 313.366C288.062 292.545 289.976 267.989 278.147 247.114C274.736 241.099 270.952 235.664 265.811 231.137C257.248 223.595 247.363 218.002 236.056 216.197L235.723 225.945L235.276 243.335L234.759 258.697L234.266 274.54L233.789 289.46C233.704 292.113 233.53 294.761 233.57 297.652L222.8 308.467L217.34 302.749L211.642 296.601L211.319 291.548L210.911 276.414L210.399 257.715L209.952 243.043L209.539 224.691L209.101 217.709L209.116 217.704ZM107.929 302.021C97.7607 282.801 91.2221 262.461 90.1779 240.459C89.8944 234.474 89.6309 228.742 90.0933 222.762L90.4812 217.739C91.2917 207.276 94.2452 192.772 97.7756 182.984C105.284 162.162 114.632 145.273 129.449 128.821C133.169 124.69 137.027 121.001 140.975 117.059C142.144 115.889 144.058 115.328 144.381 113.588C137.072 119.151 129.648 126.614 123.756 133.04C117.203 140.196 107.909 153.376 103.544 161.964C99.5457 169.824 95.9159 177.44 93.2607 185.899C89.979 196.377 88.0149 206.894 87.2392 217.912C85.9912 235.669 87.9702 256.009 93.8673 272.854C97.4474 283.089 101.321 292.921 107.919 302.016L107.929 302.021ZM351.633 175.794C352.682 176.875 353.205 178.863 354.975 178.843C341.132 161.672 324.643 148.169 305.008 139.1C283.97 129.381 262.101 125.082 239.159 127.794C238.567 127.864 238.339 130.055 238.841 130.055C243.4 129.644 247.766 129.485 252.132 129.793C264.558 130.66 276.695 132.103 288.559 136.09C294.586 138.118 300.299 139.814 306.027 142.492C323.803 150.787 338.014 161.786 351.633 175.794ZM206.257 159.589C208.082 158.91 208.231 156.599 207.167 155.062C195.522 161.057 184.622 168.108 175.876 177.698C180.883 174.108 185.229 170.012 190.589 167.047C195.691 164.225 200.589 161.701 206.257 159.589ZM344.041 296.844L344.443 290.1C344.637 286.892 344.941 283.857 344.354 280.698L344.13 273.91C342.34 260.358 340.038 246.781 333.733 234.568C342.126 258.548 344.095 283.133 339.342 307.887C337.174 319.168 334.235 329.665 329.317 340.063C322.048 355.435 320.119 358.222 309.821 371.699C306.579 375.939 302.402 379.078 300.224 382.35C324.196 362.238 342.216 327.205 344.041 296.844Z" fill="#142F8A"/>
<path d="M327.139 518.349L335.072 507.777C336.568 505.786 337.557 503.296 341.091 503.7C344.148 504.047 349.36 509.84 346.827 513.123L331.065 533.6C328.271 537.23 323.128 545.536 328.487 548.428C333.34 551.051 340.909 543.199 344.033 539.438L354.868 526.396C355.155 526.053 356.18 525.642 356.611 525.614C357.041 525.586 357.233 527.176 356.939 527.801C350.017 542.389 336.679 566.289 320.87 573.098C316.515 574.975 310.975 574.688 308.077 570.54C303.752 564.357 308.49 553.86 310.641 547.428L299.886 560.27C294.612 566.565 289.04 572.524 281.773 576.425C277.983 578.463 272.728 576.821 271.492 572.618C270.619 569.638 270.756 566.521 270.562 563.224L262.958 571.277C257.478 577.085 246.493 585.315 238.743 580.252C236.089 578.516 233.583 575.102 233.966 571.443C235.01 561.407 241.984 551.079 248.346 543.493L256.64 533.601C257.057 533.104 257.239 531.683 256.962 531.184C254.967 527.555 241.435 534.389 235.136 547.165C229.344 558.917 222.275 569.529 213.065 578.68C207.727 583.983 198.147 590.442 191.164 585.161C188.456 583.113 187.871 579.738 187.83 576.156C187.778 570.838 190.609 566.497 191.533 561.015L179.224 575.67C175.014 580.683 170.144 584.96 164.767 588.617C162.058 590.46 158.438 590.734 155.977 589.252C148.409 584.684 153.651 571.043 156.705 564.481C162.002 553.094 169.145 543.041 176.656 533.031C178.991 529.917 181.161 527.215 183.828 524.344C185.31 522.75 187.152 520.02 189.884 520.486C193.459 521.095 198.401 527.039 196.921 530.812C194.893 535.975 190.139 539.736 186.8 543.922L174.019 559.966C172.478 561.898 171.213 564.718 171.715 567.331C171.94 568.517 175.401 568.311 176.37 567.562C180.674 564.226 184.348 560.895 187.945 556.738C198.718 544.289 208.576 531.571 218.348 518.288C219.44 516.806 221.806 516.191 223.574 516.864C227.075 518.195 230.091 523.069 228.109 526.673C224.066 534.025 202.163 554.027 208.756 560.51C215.935 567.578 231.635 545.134 235.109 539.685C239.394 532.963 234.379 524.307 234.97 516.83C235.983 515.554 238.888 515.383 240.47 515.637C247.289 516.733 253.543 517.311 260.406 517.345C262.585 517.355 265.177 518.002 267.113 518.867C274.686 522.262 268.252 532.454 265.316 536.997L257.24 549.477C256.068 551.286 255.154 555.163 256.865 556.6C259.362 558.703 263.256 557.15 265.709 555.589C273.285 550.782 278.337 543.912 283.403 536.704L293.408 522.472C295.36 519.699 304.33 507.485 307.776 507.37C312.067 507.761 317.689 514.687 314.972 519.028C310.504 526.165 304.185 531.81 299.119 538.439L293.146 546.256C291.491 548.424 289.478 551.567 290.342 554.409C290.749 555.74 294.313 555.141 295.366 554.287C306.186 545.533 318.421 529.969 327.138 518.343L327.139 518.349Z" fill="#142F8A"/>
<path d="M139.916 554.965C130.368 554.893 116.34 560.985 113.371 548.902C112.5 545.361 111.146 539.72 114.288 536.708C116.617 534.473 121.502 534.825 124.768 534.698C138.036 534.198 150.578 535.318 163.631 537.102C164.763 537.259 166.165 539.252 166.22 540.221C166.53 545.683 151.286 550.023 147.007 552.655C137.68 567.965 130.322 580.659 116.05 591.981C109.562 597.129 102.305 600.602 94.0044 600.987C83.5427 601.473 74.4062 595.898 69.9416 586.508C62.9379 571.771 67.8307 552.831 74.3284 538.499C81.3028 523.108 90.8609 509.741 102.739 497.732C110.115 490.271 117.574 483.463 126.244 477.593C135.573 471.282 151.934 462.006 162.59 468.727C166.88 471.436 168.657 476.223 169.554 480.997C170.735 487.262 171.567 493.482 171.187 499.976C170.522 511.378 160.564 519.395 149.224 519.773C140.093 520.076 130.834 516.827 124.443 509.092C135.649 507.964 154.5 505.568 159.686 494.735C159.675 493.819 157.988 492.424 157.104 492.088C132.019 482.593 96.3825 511.781 86.92 534.131C84.3068 540.294 82.9743 546.93 84.1414 553.477C85.8489 563.047 92.7138 570.507 102.187 572.109C116.105 574.461 130.412 565.447 139.921 554.958L139.916 554.965Z" fill="#142F8A"/>
</svg>
