<svg width="451" height="476" viewBox="0 0 451 476" fill="none" xmlns="http://www.w3.org/2000/svg">
<path d="M21.3856 240.73C21.5646 264.333 30.296 292.652 41.5385 313.627C56.1571 340.904 74.9227 362.633 100.346 380.266C140.776 408.307 193.041 417.733 239.661 400.264C262.912 391.551 282.234 378.525 298.519 359.915C314.241 341.945 327.373 314.232 328.945 290.628L329.571 281.182C329.745 278.604 329.7 276.283 329.576 273.705L329.198 265.92C328.04 241.935 317.304 217.409 300.781 199.608C284.258 181.806 261.445 169.717 237.439 167.942C237.518 171.334 237.205 174.121 237.14 177.116L236.817 192.453L236.484 198.849L241.481 199.479C247.871 200.282 253.967 201.403 260.003 203.758C277.869 210.72 292.348 223.722 301.661 240.477C307.946 251.778 311.248 264.02 312.267 276.958C315.773 321.283 289.086 359.643 250.551 379.358C244.862 382.269 239.552 384.753 233.486 386.697C222.83 390.113 212.338 392.682 201.061 393.366C194.025 393.793 187.074 393.951 179.978 393.381C162.834 392.003 146.36 387.743 130.712 380.717C116.044 374.132 102.39 366.109 90.5558 355.453L84.7779 350.251C81.0387 346.884 77.757 343.602 74.3062 339.803C58.3847 322.294 45.9241 302.038 38.391 279.556C33.2396 264.184 30.2711 248.778 29.6546 232.627C28.685 207.329 34.254 179.362 44.6611 156.25C52.1793 139.549 63.014 123.498 75.2857 110.006C99.2226 83.6951 128.44 65.3184 162.505 54.8755C166.916 53.5218 170.919 52.2028 175.429 51.3053C165.757 55.3664 156.23 59.011 146.977 64.1432C126.551 75.4737 111.191 87.5975 95.4535 104.809C79.4476 122.318 67.7974 142.028 59.6179 164.288C53.8301 180.031 51.145 196.281 50.4191 212.971C50.2401 217.067 50.1555 220.97 50.4191 224.991L51.0008 233.922C53.4373 271.275 70.6565 307.423 97.7806 333.372C124.959 359.36 162.108 378.52 200.604 376.085C211.558 375.391 222.159 373.309 232.078 368.905C222.939 371.38 214.357 373.428 204.979 374.112C170.511 376.621 136.689 361.914 111.624 338.866C108.317 335.826 105.348 333.025 102.4 329.668C80.7304 304.969 66.4449 273.541 64.1179 240.586L63.7648 235.573C62.4422 216.884 66.4051 192.299 72.899 174.527C83.4055 145.787 99.7546 122.948 122.503 102.632C145.793 81.8306 173.783 67.5795 204.238 60.935C204.552 60.8655 205.496 60.5036 205.466 60.2556L205.287 58.778L204.929 40.7236L204.576 21.6329C204.547 19.9172 203.965 18.0875 204.402 16.3371C211.478 16.709 211.841 15.9106 218.643 16.3519C220.463 16.4709 222.198 16.3867 224.073 16.3371L228.001 16.2329L241.402 16.223C241.476 19.8527 241.307 22.9568 241.228 26.408L240.745 47.1153L240.402 56.7499C243.788 56.7796 246.697 56.7102 249.899 56.9135L255.429 57.2656C295.088 59.7796 332.37 75.6522 361.926 102.106C383.198 121.143 399.736 145.028 410.645 171.393C418.158 189.552 423.812 208.514 424.816 228.1L425.433 240.065C425.572 242.803 425.542 245.312 425.453 248.034L425.055 260.455C424.413 257.976 424.324 255.68 424.065 252.973C422.081 232.107 416.328 212.376 407.458 193.429C402.356 182.54 396.588 172.445 389.513 162.646C361.528 123.905 315.733 96.2305 267.556 92.6801C259.973 92.1198 247.189 92.209 239.507 93.528L239.383 108.126C239.378 108.88 239.06 110.581 239.139 110.774L249.825 110.02C254.389 109.698 258.656 109.807 263.325 110.144C279.873 111.344 295.829 114.954 310.999 121.624C353.96 140.501 385.788 176.035 400.934 220.251C407.055 238.122 411.5 263.44 410.193 282.174L409.675 289.557C406.767 331.245 384.013 374.692 353.026 402.738L347.984 407.305C318.05 434.399 269.366 453.019 228.518 451.913C244.917 449.191 261.012 444.867 276.352 437.81C311.109 421.824 339.844 396.579 358.386 363.158C367.599 346.557 375.918 323.826 377.097 304.989L377.748 294.556C377.942 291.481 377.942 288.64 377.763 285.571L377.296 277.394C376.406 261.804 372.313 246.948 366.232 232.578L363.711 226.627C362.737 224.322 361.613 222.274 360.385 220.023C351.226 203.223 341.808 191.233 327.637 178.405C319.865 171.369 311.531 165.949 302.248 161.035C283.05 150.88 259.904 145.465 237.971 148.048L238.1 154.351C284.024 153.636 321.69 178.613 343.668 217.861C347.73 225.115 350.689 232.137 353.364 239.991C357.705 252.725 360.27 265.429 360.942 278.891C361.135 282.779 361.314 286.657 361.041 290.584L360.623 296.584C359.549 311.99 355.815 326.658 350.067 341.038C333.31 382.973 296.227 413.617 253.877 427.859C236.772 433.611 221.965 436.725 204.025 437.513C199.241 437.721 194.602 437.84 189.833 437.577L183.235 437.21C141.716 434.89 100.172 412.606 71.8449 382.502C52.8704 362.335 37.5904 337.101 29.0728 310.676C22.7928 291.154 19.1281 268.682 20.1624 248.321L20.5303 241.037L20.6 239.996C20.6149 239.783 21.3806 240.467 21.3856 240.735V240.73ZM209.116 217.712C200.33 220.504 192.966 225.76 186.422 232.265C181.013 238.414 177.288 245.515 174.772 253.31C171.819 262.468 171.938 271.22 173.932 280.929C167.224 268.067 167.682 249.75 173.534 236.758C180.54 221.218 193.021 209.252 209.091 203.396L208.803 200.833L208.435 182.357C208.355 178.221 208.137 174.433 208.127 170.183C186.189 176.684 168.666 187.841 157.115 208.013C148.886 222.383 146.012 238.851 147.3 255.358C148.076 265.285 150.736 274.473 154.649 283.607C158.92 293.569 165.35 302.197 173.385 309.422C193.483 327.476 222.999 333.927 246.966 320.405C250.839 318.218 254.016 315.436 257.487 313.116C246.797 326.192 231.556 333.412 214.949 334.497C201.896 335.35 189.068 331.969 177.219 326.474C158.105 317.613 141.666 300.913 132.925 281.966C125.268 265.364 121.817 247.989 122.801 229.618C123.711 212.669 128.087 196.251 135.605 181.092C150.239 151.589 176.423 130.509 206.705 118.852L206.545 109.763L206.153 100.778C170.421 112.857 142.124 136.133 124.313 169.316C112.703 190.945 106.671 217.494 108.546 241.955C110.042 261.457 115.328 280.31 124.825 297.387C136.774 318.873 152.491 334.646 174.961 345.02C182.982 348.719 196.984 352.12 205.73 352.413C219.697 352.874 233.58 350.489 245.936 344.192C259.585 337.235 270.057 326.841 277.128 313.374C288.062 292.552 289.976 267.997 278.147 247.121C274.736 241.107 270.952 235.672 265.811 231.145C257.248 223.603 247.363 218.009 236.056 216.204L235.723 225.953L235.276 243.343L234.759 258.705L234.266 274.548L233.789 289.468C233.704 292.121 233.53 294.769 233.57 297.66L222.8 308.475L217.34 302.757L211.642 296.609L211.319 291.556L210.911 276.422L210.399 257.723L209.952 243.05L209.539 224.699L209.101 217.717L209.116 217.712ZM107.929 302.028C97.7607 282.809 91.2221 262.468 90.1779 240.467C89.8944 234.482 89.6309 228.75 90.0933 222.77L90.4812 217.747C91.2917 207.284 94.2452 192.78 97.7756 182.992C105.284 162.17 114.632 145.281 129.449 128.828C133.169 124.698 137.027 121.009 140.975 117.067C142.144 115.896 144.058 115.336 144.381 113.596C137.072 119.159 129.648 126.622 123.756 133.048C117.203 140.204 107.909 153.384 103.544 161.972C99.5457 169.831 95.9159 177.448 93.2607 185.907C89.979 196.385 88.0149 206.902 87.2392 217.92C85.9912 235.677 87.9702 256.017 93.8673 272.862C97.4474 283.096 101.321 292.929 107.919 302.023L107.929 302.028ZM351.633 175.802C352.682 176.883 353.205 178.871 354.975 178.851C341.132 161.679 324.643 148.177 305.008 139.108C283.97 129.389 262.101 125.09 239.159 127.802C238.567 127.871 238.339 130.063 238.841 130.063C243.4 129.652 247.766 129.493 252.132 129.8C264.558 130.668 276.695 132.111 288.559 136.098C294.586 138.126 300.299 139.822 306.027 142.499C323.803 150.795 338.014 161.793 351.633 175.802ZM206.257 159.597C208.082 158.917 208.231 156.607 207.167 155.07C195.522 161.065 184.622 168.116 175.876 177.706C180.883 174.116 185.229 170.02 190.589 167.055C195.691 164.233 200.589 161.709 206.257 159.597ZM344.041 296.852L344.443 290.108C344.637 286.9 344.941 283.865 344.354 280.706L344.13 273.918C342.34 260.366 340.038 246.789 333.733 234.576C342.126 258.556 344.095 283.141 339.342 307.894C337.174 319.175 334.235 329.673 329.317 340.071C322.048 355.443 320.119 358.229 309.821 371.707C306.579 375.947 302.402 379.085 300.224 382.358C324.196 362.246 342.216 327.213 344.041 296.852Z" fill="#142F8A"/>
</svg>
